<?xml version="1.0" standalone="no"?>
<!DOCTYPE svg PUBLIC "-//W3C//DTD SVG 1.1//EN" "http://www.w3.org/Graphics/SVG/1.1/DTD/svg11.dtd" >
<svg xmlns="http://www.w3.org/2000/svg" xmlns:xlink="http://www.w3.org/1999/xlink" version="1.1">
<metadata></metadata>
<defs>
<font id="db_adman_xbold" horiz-adv-x="0" >
<font-face units-per-em="2048" ascent="1638" descent="-410" />
<missing-glyph horiz-adv-x="512" />
<glyph unicode="&#x2b;&#x2d;" horiz-adv-x="809" d="M37 0v162h735v-162h-735zM37 492v162h287v286h162v-286h286v-162h-286v-287h-162v287h-287z" />
<glyph unicode="&#x2e;&#x2e;&#x2e;" horiz-adv-x="1038" d="M60 90q0 26 9 48t25 38t38 25.5t48 9.5t47.5 -9.5t37.5 -25.5t25 -38t9 -46h2q0 -26 -9.5 -48t-25.5 -38t-38 -25t-48 -9t-48 9t-38 25t-25 38t-9 46zM400 90q0 26 9 48t25 38t38 25.5t48 9.5t47.5 -9.5t37.5 -25.5t25 -38t9 -46h2q0 -26 -9.5 -48t-25.5 -38t-38 -25 t-48 -9t-48 9t-38 25t-25 38t-9 46zM740 90q0 26 9 48t25 38t38 25.5t48 9.5t48 -9.5t38 -25.5t25.5 -38t9.5 -46q0 -26 -9.5 -48t-25.5 -38t-38 -25t-48 -9t-48 9t-38 25t-25 38t-9 46z" />
<glyph unicode="&#x3c;&#x3d;" horiz-adv-x="819" d="M49 346v201l723 -391v-186zM49 633v143l723 360v-186l-483 -246l483 -262v-186z" />
<glyph unicode="&#x3e;&#x3d;" horiz-adv-x="819" d="M49 -30v186l723 391v-201zM49 256v186l483 262l-483 246v186l723 -360v-143z" />
<glyph unicode="&#xe4f;&#x22;" horiz-adv-x="1151" d="M74 486q0 68 18 131t51 119t78.5 102t101 78.5t119.5 50.5t132 18t131 -18t119 -50.5t102 -78.5t78.5 -102t50.5 -119t18 -131t-18 -132t-50.5 -119.5t-78.5 -101t-102 -78.5t-119 -51t-131 -18t-132 18t-119.5 51t-101 78.5t-78.5 101t-51 119.5t-18 132zM213 486 q0 -49 13 -95t36.5 -86.5t56.5 -73.5t73.5 -56.5t86 -36.5t95.5 -13q49 0 94.5 13t85.5 36.5t73 56.5t56 73.5t36 86t13 95.5l2 -9q0 50 -13 97t-37 88t-57 74.5t-73 58t-86 38t-94 13.5q-49 0 -95 -13t-86.5 -37t-73.5 -57t-56.5 -73t-36.5 -86t-13 -94zM322 486 q0 52 19.5 98t54 80t80.5 54t98 20t98 -20t80 -54t54 -80t20 -98t-20 -98t-54 -80.5t-80 -54t-98 -19.5t-98 19.5t-80.5 54t-53.5 80.5q-20 46 -20 98zM398 1358h147l-23 -316h-106zM456 486q0 -24 9.5 -45.5t25.5 -37.5t37.5 -25.5t45.5 -9.5t45 9.5t37 25.5t25 37.5 t9 45.5t-9 45t-25 37t-37 25t-45 9t-45.5 -9t-37.5 -25t-25.5 -37t-9.5 -45zM600 1358h148l-19 -316h-111z" />
<glyph unicode="&#xe0e;&#xe3a;" horiz-adv-x="1009" d="M43 -240q54 38 103 64t95 42.5t90.5 24t90.5 7.5q64 0 124 -13t118 -39l69 66v614q0 49 -18 90.5t-51.5 70.5t-80.5 46t-106 17q-26 0 -51 -6t-49 -16t-45.5 -24t-40.5 -32l49 -52v-620h-284v186h86v369l-99 105q38 64 85 115t102.5 86t117.5 54t129 19q98 0 181.5 -30 t144.5 -84.5t95 -129t34 -164.5v-682l-244 -225q-42 30 -78 50t-67.5 32.5t-61 17.5t-59.5 5t-60 -5t-62.5 -18t-69 -33t-78.5 -51zM717 -518q0 24 9.5 46t25.5 38t37 25t45 9t46 -9t38 -25t25 -38t9 -46v2q0 -24 -9 -46t-25 -38t-37 -25.5t-45 -9.5t-46 9.5t-38 25.5 t-25.5 37t-9.5 45z" />
<glyph unicode="&#xe0f;&#xe3a;" horiz-adv-x="1009" d="M43 660q39 64 86.5 115t102 86t116.5 54t129 19q66 0 125.5 -14t110 -39.5t91 -62t69.5 -82.5t44 -99t15 -113v-676l-266 -235l-160 143l-160 -143l-268 239l110 128l164 -140l154 138l154 -138l75 64v622q0 49 -18.5 90t-52.5 70.5t-81 45.5t-106 16q-51 0 -100 -20 t-86 -56l49 -52v-620h-284v186h86v369zM717 -518q0 24 9.5 46t25.5 38t37 25t45 9t46 -9t38 -25t25 -38t9 -46v2q0 -24 -9 -46t-25 -38t-37 -25.5t-45 -9.5t-46 9.5t-38 25.5t-25.5 37t-9.5 45z" />
<glyph unicode="&#xe0e;&#xe38;" horiz-adv-x="1009" d="M43 -234q54 37 103 63.5t95 42.5t90.5 24t90.5 8q64 0 124 -12q60 -14 118 -40l69 66v608q0 49 -18 90.5t-51.5 70.5t-80.5 46t-106 17q-26 0 -51 -6t-49 -16t-45.5 -24t-40.5 -32l49 -52v-620h-284v186h86v369l-99 105q38 64 85 115t102.5 86t117.5 54t129 19 q98 0 181.5 -30t144.5 -84.5t95 -129t34 -164.5v-678l-244 -225q-42 30 -78 50t-67.5 32.5t-61 17.5t-59.5 5t-60 -5t-62.5 -18t-69 -33t-78.5 -51zM662 -410h170q21 0 39 -8t31.5 -21t21.5 -31.5t8 -39.5v-250h-186v164h-84v186z" />
<glyph unicode="&#xe0f;&#xe38;" horiz-adv-x="1009" d="M43 660q39 64 86.5 115t102 86t116.5 54t129 19q66 0 125.5 -14t110 -39.5t91 -62t69.5 -82.5t44 -99t15 -113v-676l-266 -235l-160 143l-160 -143l-268 239l110 128l164 -140l154 138l154 -138l75 64v622q0 49 -18.5 90t-52.5 70.5t-81 45.5t-106 16q-51 0 -100 -20 t-86 -56l49 -52v-620h-284v186h86v369zM664 -410h168q21 0 39 -8t31.5 -21t21.5 -31.5t8 -39.5v-250h-186v164h-82v186z" />
<glyph unicode="&#xe0e;&#xe39;" horiz-adv-x="1009" d="M43 -234q54 37 103 63.5t95 42.5t90.5 24t90.5 8q64 0 124 -12q60 -14 118 -40l69 66v608q0 49 -18 90.5t-51.5 70.5t-80.5 46t-106 17q-26 0 -51 -6t-49 -16t-45.5 -24t-40.5 -32l49 -52v-620h-284v186h86v369l-99 105q38 64 85 115t102.5 86t117.5 54t129 19 q98 0 181.5 -30t144.5 -84.5t95 -129t34 -164.5v-678l-244 -225q-42 30 -78 50t-67.5 32.5t-61 17.5t-59.5 5t-60 -5t-62.5 -18t-69 -33t-78.5 -51zM416 -410h266v-166q0 -14 8 -24t25 -10q33 0 33 32v168h184v-170q0 -43 -17 -80.5t-46 -65.5t-67 -44t-81 -16q-40 0 -80 13 t-71.5 38t-50.5 60t-19 79h-84v186z" />
<glyph unicode="&#xe0f;&#xe39;" horiz-adv-x="1009" d="M43 660q39 64 86.5 115t102 86t116.5 54t129 19q66 0 125.5 -14t110 -39.5t91 -62t69.5 -82.5t44 -99t15 -113v-676l-266 -235l-160 143l-160 -143l-268 239l110 128l164 -140l154 138l154 -138l75 64v622q0 49 -18.5 90t-52.5 70.5t-81 45.5t-106 16q-51 0 -100 -20 t-86 -56l49 -52v-620h-284v186h86v369zM416 -410h266v-166q0 -14 8 -24t25 -10q33 0 33 32v168h184v-170q0 -43 -17 -80.5t-46 -65.5t-67 -44t-81 -16q-40 0 -80 13t-71.5 38t-50.5 60t-19 79h-84v186z" />
<glyph unicode="&#xd;" horiz-adv-x="579" />
<glyph unicode=" "  horiz-adv-x="512" />
<glyph unicode="&#x09;" horiz-adv-x="512" />
<glyph unicode="&#xa0;" horiz-adv-x="512" />
<glyph unicode="!" horiz-adv-x="440" d="M90 102q0 27 10 50t27.5 39.5t41 26.5t50.5 10t50.5 -10t41 -26.5t27.5 -39.5t10 -50t-10 -49.5t-27.5 -38.5t-41 -25t-50.5 -9t-50.5 9t-41 25t-27.5 39t-10 49zM112 635v447h216v-447l-27 -359h-164z" />
<glyph unicode="&#x22;" horiz-adv-x="493" d="M45 1100h172l-21 -400h-132zM276 1100h174l-18 -400h-139z" />
<glyph unicode="#" horiz-adv-x="919" d="M56 295v168h176l18 133h-156v168h178l42 274h174l-44 -274h115l41 274h172l-41 -274h135v-168h-162l-20 -133h148v-168h-174l-50 -295h-166l48 295h-113l-43 -295h-170l43 295h-151zM400 463h116l16 133h-112z" />
<glyph unicode="$" horiz-adv-x="876" d="M18 282l187 80q22 -49 44.5 -83.5t45.5 -58.5t47 -37t49 -19v336q-36 15 -71.5 30.5t-67.5 34.5t-61 41t-50 50t-33 62q-12 32 -12 74q0 59 21 110.5t60 91.5t93 66t121 36v149h147v-153q78 -17 148 -66t133 -135l-163 -115q-18 24 -34.5 42t-31 32.5t-26.5 25.5 q-14 10 -26 19v-258q42 -18 82 -35t75 -36.5t64.5 -42.5t50.5 -52t32.5 -65t11.5 -82q0 -40 -11 -78t-32 -71t-50 -62t-64 -52t-75 -40t-84 -27v-166h-147v156q-247 18 -373 298zM305 796q0 -18 8 -31t20.5 -24t27.5 -19l30 -16v206q-18 -6 -34 -16t-27.5 -24t-18 -33 t-6.5 -43zM538 178q48 20 76.5 56t28.5 90q0 20 -10.5 35.5t-26.5 29t-34 24.5t-34 19v-254z" />
<glyph unicode="%" horiz-adv-x="1161" d="M28 842q0 52 20 96.5t54 77t80 51.5t98 19t98 -19t80 -51.5t53 -77t19 -96.5t-19 -96t-53 -76t-80 -50t-98 -18t-98 18t-80 50t-54 76t-20 96zM182 37l637 1089l162 -74l-649 -1103zM192 842q0 -18 7 -33t19 -26t28 -17t34 -6t34 7t28 18t19 26t7 31q0 18 -7 33t-19 26 t-28 18t-34 7t-34 -7t-28 -18t-19 -26t-7 -33zM624 238q0 53 20 97.5t55 76.5t81 50q44 17 96 17t98 -17.5t80 -49.5t54 -76.5t20 -97.5q0 -52 -20 -96t-54 -76t-80 -50t-98 -18q-50 0 -96 18t-80 50t-55 76t-21 96zM788 238q0 -18 7 -33t19 -26t28 -17t34 -6t35 6t29 17 t19 26t7 33t-7 33t-19 27t-28 19q-18 7 -36 7t-34 -7t-28 -19t-19 -28q-7 -14 -7 -32z" />
<glyph unicode="&#x26;" horiz-adv-x="1134" d="M94 262q-4 44 4 84t24 75t39 67t50.5 60t57 54t59.5 50q-18 19 -34 40t-28 44.5t-20 49.5t-10 54q-4 52 12 99t48 84t76 60t97 27t100 -12t82.5 -47t57.5 -73t26 -91q4 -44 -5.5 -82.5t-28.5 -71.5t-45 -61t-54 -52l176 -194l109 123l155 -113l-132 -154l247 -282h-243 l-134 148q-36 -32 -75 -62t-81 -54t-87 -40t-95 -20q-68 -6 -128 14t-107 60t-77 96t-36 120zM291 284q2 -30 14 -55t30.5 -42t41.5 -25t49 -6q27 2 54 13t54.5 29t56 41.5t58.5 51.5l-193 215q-16 -12 -35 -27t-38.5 -32t-37 -36t-30.5 -39t-20 -42t-4 -46zM428 848 q0 -12 5.5 -23.5t13 -23t15.5 -21.5t15 -18q12 10 24.5 21.5t23.5 25t16.5 28.5t3.5 33q-5 30 -23 45t-40 13q-10 -1 -20 -7.5t-18.5 -17.5t-13 -25t-2.5 -30z" />
<glyph unicode="'" horiz-adv-x="329" d="M78 1100h174l-22 -400h-134z" />
<glyph unicode="(" horiz-adv-x="485" d="M39 461q0 84 14.5 165.5t41.5 162t66 161t89 160.5l204 -8q-112 -166 -166 -325t-54 -318q0 -58 4.5 -109.5t15 -101.5t26.5 -100t39 -104t53 -116t68 -135l-188 -6q-53 82 -93 166.5t-66.5 169.5t-40 170t-13.5 168z" />
<glyph unicode=")" horiz-adv-x="485" d="M39 1102l203 8q50 -80 89 -160.5t67 -161t42 -162t14 -165.5q0 -83 -13 -168t-40 -170t-67 -169.5t-92 -166.5l-189 6q38 73 68 135t53 116t39.5 104t26.5 100t15 101t5 110q0 160 -55 318.5t-166 324.5z" />
<glyph unicode="*" horiz-adv-x="721" d="M49 830l55 161l176 -61l-6 192h172l-4 -192l176 61l56 -161l-182 -56l114 -156l-135 -104l-107 152l-112 -152l-136 104l116 156z" />
<glyph unicode="+" horiz-adv-x="809" d="M37 318v161h287v287h162v-287h286v-161h-286v-288h-162v288h-287z" />
<glyph unicode="," horiz-adv-x="348" d="M30 -112q22 14 39.5 26t31 23.5t24.5 23.5q11 13 21 27q-44 11 -68.5 38.5t-24.5 65.5q0 22 8.5 43t24.5 37t37 25.5t47 9.5q33 0 57.5 -13.5t40.5 -33.5t23.5 -45t7.5 -49q0 -60 -46.5 -127t-144.5 -133z" />
<glyph unicode="-" horiz-adv-x="588" d="M53 318v164h481v-164h-481z" />
<glyph unicode="." horiz-adv-x="348" d="M53 102q0 26 9.5 48t25.5 38t38 25.5t48 9.5t48 -9.5t38 -25.5t25.5 -38t9.5 -46q0 -26 -9.5 -47.5t-25.5 -38t-38 -25.5t-48 -9t-48 9t-38 25t-25.5 38t-9.5 46z" />
<glyph unicode="/" horiz-adv-x="1061" d="M52 -162l758 1378h199l-751 -1378h-206z" />
<glyph unicode="0" horiz-adv-x="880" d="M39 547q0 67 11 134t33 128t55 114t77.5 91.5t100.5 61t122 22.5q67 0 122.5 -22.5t100.5 -61t78 -91.5t55 -114t33 -128t11 -134t-11 -135t-33 -130.5t-55 -117t-77 -94.5t-100 -63t-124 -23t-123.5 23t-100 63t-77.5 94.5t-55 117t-32.5 130.5t-10.5 135zM242 547 q0 -86 16.5 -155t44 -117.5t63.5 -74.5q34 -26 72 -26t73 26t62 74.5t43.5 117.5t16.5 155q0 51 -7.5 97.5t-20.5 86t-31.5 72t-40 55t-45.5 35t-50 12.5q-38 0 -73 -27.5t-62.5 -75.5t-44 -113t-16.5 -142z" />
<glyph unicode="1" horiz-adv-x="880" d="M176 889v193h394v-1084h-204v891h-190z" />
<glyph unicode="2" horiz-adv-x="880" d="M80 682q2 72 17 130t40 104t59 80t74 56t84 33t90 11q50 0 97 -12t88 -34t74 -53.5t56.5 -70t36.5 -83t13 -93.5q0 -38 -9.5 -75t-25 -70t-36 -64t-43.5 -59t-46 -53t-45 -46l-196 -195h397v-188h-723v142l364 360q30 30 59.5 63t51.5 66t35.5 64t13.5 59q0 33 -12.5 61 t-34.5 48.5t-51.5 32.5t-63.5 12q-33 0 -62 -12t-50.5 -39t-34.5 -70t-13 -105h-204z" />
<glyph unicode="3" horiz-adv-x="880" d="M86 366h198q2 -53 14 -89.5t31 -59.5t45 -33t58 -10q33 0 60.5 11.5t48 32t32 48.5t11.5 62q0 27 -10 50.5t-32.5 41.5t-59 31t-89.5 18v180q50 6 83 18.5t53.5 30.5t29.5 40t9 48q0 28 -9.5 50t-26 37t-38.5 23.5t-50 8.5q-24 0 -46 -8t-39 -28.5t-27 -55.5t-10 -90 h-203q0 94 24.5 164.5t68 117.5t103.5 70q59 23 131 23q44 0 86 -11t78 -30t66 -47t51 -63t33 -76t12 -87q0 -65 -23 -119.5t-71 -99.5q54 -48 82 -107.5t28 -125.5q0 -72 -24 -135t-70 -110.5t-111.5 -75t-148.5 -27.5q-68 0 -130 23t-110 70.5t-77 119.5q-29 71 -31 169z " />
<glyph unicode="4" horiz-adv-x="880" d="M26 178v150l535 754h160v-710h119v-194h-119v-178h-205v178h-490zM293 372h223v312z" />
<glyph unicode="5" horiz-adv-x="880" d="M24 242l183 78q28 -43 55.5 -71.5t53.5 -44.5t51 -23t49 -7q46 0 85.5 15.5t69 44t46 67.5t16.5 88q0 42 -17.5 78t-46.5 63t-67.5 42.5t-81.5 15.5q-24 0 -53 -4t-64 -15t-76 -29t-90 -44v586h607v-191h-402v-123q23 4 45.5 7t44.5 3q58 0 110 -14t97 -39.5t81 -61 t62 -79.5t40 -93.5t14 -103.5q0 -59 -15.5 -112t-43 -97.5t-66.5 -80.5t-86 -61.5t-101 -38.5q-52 -13 -110 -13q-53 0 -105.5 13.5t-101.5 44t-95 80.5q-48 50 -88 120z" />
<glyph unicode="6" horiz-adv-x="880" d="M49 385q0 36 5.5 68.5t15.5 62.5t24 58.5t33 56.5l305 453h244l-203 -298q52 -4 98.5 -21t87.5 -44t73 -64t55 -80t36 -91.5t13 -100.5q0 -54 -14 -104t-39.5 -94.5t-61 -82t-79.5 -64t-94 -41.5q-52 -15 -106 -15q-55 0 -105.5 14t-94 40t-79 63t-61 82t-39.5 96 t-14 106zM254 385q0 -46 15.5 -84.5t42 -66.5t60.5 -43t70 -15t71 16t61.5 44t42.5 66.5t16 82.5t-16 82.5t-42.5 66.5t-60.5 44q-36 16 -72 16q-37 0 -70.5 -15t-60 -43t-42 -66.5t-15.5 -84.5z" />
<glyph unicode="7" horiz-adv-x="880" d="M66 889v193h758v-164l-527 -918h-229l512 889h-514z" />
<glyph unicode="8" horiz-adv-x="880" d="M86 314q0 157 110 251q-45 46 -66.5 98.5t-21.5 112.5q0 68 25.5 127t70 102t105.5 68t131 25t131 -25t106 -68t70 -102t25 -127q0 -60 -21.5 -112t-66.5 -99q110 -93 110 -251q0 -48 -13 -91t-36.5 -80t-56.5 -66t-72.5 -50t-83.5 -32t-92 -11q-47 0 -91.5 11t-83.5 32 t-72 50t-57 66t-37 80t-13 91zM289 320q0 -30 12.5 -57t32.5 -46.5t48 -31t58 -11.5t57.5 12t48.5 32t33.5 46t12.5 56t-12 55.5t-33 45t-49 29.5q-28 11 -58 11q-31 0 -58.5 -10.5t-47.5 -30t-32.5 -45t-12.5 -55.5zM312 778q0 -27 10 -49.5t27 -38.5t41 -25t50 -9 q27 0 50.5 9.5t41.5 26t28 38.5t10 48q0 27 -11 50.5t-29 40.5t-41 26.5t-49 9.5q-27 0 -50.5 -9.5t-40.5 -26.5t-27 -40.5t-10 -50.5z" />
<glyph unicode="9" horiz-adv-x="880" d="M45 696q0 56 14.5 107t40.5 96t62 81t80 62t94 40t104 14q55 0 105.5 -14.5t94.5 -40.5t79 -62.5t60 -82t39 -97.5t14 -109q0 -36 -6 -68.5t-17 -62t-25 -56.5t-32 -53l-302 -450h-241l203 297q-51 2 -98.5 18.5t-88 43.5t-74 64t-57 80t-36.5 93q-13 48 -13 100z M250 696q0 -46 16 -83.5t42.5 -65t61 -42.5t70.5 -15q34 0 68 15t60 42.5t42 65t16 83.5q0 44 -15 82t-41 65t-60 42.5t-70 15.5q-38 0 -72 -15t-60 -42t-42 -64.5t-16 -83.5z" />
<glyph unicode=":" horiz-adv-x="348" d="M56 104q0 26 9 48t25 38t38 26t46 10q26 0 48 -10t38 -26t25.5 -38t9.5 -48v2q0 -26 -9.5 -47.5t-25.5 -38t-38 -25.5t-46 -9q-26 0 -48 9t-38 25t-25 38t-9 46zM56 620q0 26 9 48t25 38t38 26t46 10q26 0 48 -10t38 -26t25.5 -38t9.5 -46q0 -26 -9.5 -47.5t-25.5 -38 t-38 -25.5t-46 -9q-26 0 -48 9t-38 25.5t-25 38t-9 45.5z" />
<glyph unicode=";" horiz-adv-x="348" d="M30 -112q22 14 39.5 26t31 23.5t24.5 23.5q11 13 21 27q-44 11 -68.5 38.5t-24.5 65.5q0 22 8.5 43t24.5 37t37 25.5t47 9.5q33 0 57.5 -13.5t40.5 -33.5t23.5 -45t7.5 -49q0 -60 -46.5 -127t-144.5 -133zM53 620q0 26 9.5 48t25.5 38t38 26t46 10q26 0 48 -10t38 -26 t25.5 -38t9.5 -48t-9.5 -47.5t-25.5 -38t-38 -25.5t-48 -9q-24 0 -46 9t-38 25.5t-26 38.5q-9 21 -9 47z" />
<glyph unicode="&#x3c;" horiz-adv-x="819" d="M49 346v144l723 360v-186l-483 -246l483 -262v-186z" />
<glyph unicode="=" horiz-adv-x="815" d="M47 190v164h723v-164h-723zM47 440v164h723v-164h-723z" />
<glyph unicode="&#x3e;" horiz-adv-x="819" d="M49 -30v186l483 262l-483 246v186l723 -360v-144z" />
<glyph unicode="?" horiz-adv-x="737" d="M37.5 812.5q4.5 54.5 23.5 100t49.5 81.5t70 61t86.5 38t97 13q74 0 135 -24t104.5 -66t67 -98t23.5 -120q0 -43 -10.5 -77.5t-28 -63.5t-39.5 -53q-20 -24 -42 -45q-14 -14 -33 -30.5t-35 -35t-26 -38.5q-11 -19 -11 -41v-142h-189v146q0 38 10 69t25 57t35 48.5t41 43 t41 39.5t35.5 39t25 41t9.5 46q0 20 -8 41.5t-24 38.5t-42 28t-64 11q-37 0 -65.5 -13t-46.5 -40.5t-23 -69.5q-5 -43 7 -101h-191q-12 62 -7.5 116.5zM250 92q0 27 9.5 50t26 39.5t39.5 26t50 9.5q26 0 48.5 -9.5t39.5 -26t27 -39.5t10 -50t-10 -49.5t-26 -39.5t-39 -26.5 t-50 -9.5t-50 9.5t-39.5 26.5t-26 39.5t-9.5 49.5z" />
<glyph unicode="@" horiz-adv-x="1179" d="M26 545q0 79 21 152t59 136t91 114.5t118 88t138 56.5t153 20q74 0 143 -16t129 -46t109 -73t84 -97t55 -118q19 -64 19 -134q0 -60 -15.5 -115t-41.5 -104t-62.5 -89t-78 -69t-87 -45t-90.5 -16q-30 0 -51 7t-36 17t-24 23t-14 25q-43 -23 -83 -33t-78 -10 q-56 0 -98 18.5t-70.5 50.5t-43 75t-14.5 91q0 46 11 96t32 97t52 88.5t72 73t91 49.5t110 18q76 0 146 -50l6 24h140q-28 30 -64 53.5t-76 40t-82 25t-86 8.5q-62 0 -118 -16.5t-106 -46t-90 -70.5t-69 -90.5t-45 -104.5t-16 -115q0 -67 17 -126.5t49 -109.5t76 -89.5 t98.5 -67t117 -42.5t130.5 -15q49 0 99.5 8t97.5 26t89.5 46t75.5 68l176 4q-46 -74 -107 -128t-132 -88t-148 -50.5t-153 -16.5q-86 0 -166.5 18.5t-150 54.5t-126.5 88t-97.5 117.5t-63 144.5t-22.5 169zM402 463q0 -24 4.5 -43.5t16.5 -33.5t32 -22t51 -8q24 0 48.5 11.5 t46 30t37.5 40.5q16 24 24 46l53 165q2 7 -2.5 22t-16.5 29.5t-32 26t-50 11.5q-26 0 -52 -12t-50 -32t-44 -47.5t-35 -58t-23 -62.5t-8 -63zM769 345.5q1 -8.5 5 -13.5q4 -6 16 -6q22 0 46 13t48 35t46 52t39 64t27 71t10 72q0 60 -22 113q-20 52 -58 94q-4 -3 -11 -17.5 t-18 -38.5q-8 -22 -19 -55t-25.5 -81.5t-33.5 -115t-45 -153.5q-2 -7 -4 -16t-1 -17.5z" />
<glyph unicode="A" horiz-adv-x="1030" d="M0 0l454 1082h128l446 -1082h-215l-121 293h-352l-121 -293h-219zM418 477h196l-98 235z" />
<glyph unicode="B" horiz-adv-x="827" d="M78 0v1082h276q76 0 142 -18.5t113.5 -57t74 -98.5t26.5 -144q0 -103 -54 -174q68 -44 105 -111t37 -149q0 -58 -15 -104.5t-42 -83t-63.5 -63.5t-80 -44.5t-91.5 -26t-96 -8.5h-332zM280 188h90q56 0 98 7t70 23.5t42 43.5t14 66t-16 67.5t-46 40.5q-16 8 -35 13t-41 8 t-47 3.5t-53 0.5h-76v-273zM280 652h50q43 0 75.5 4t55 17t34 36.5t11.5 62.5q0 34 -10 57t-31.5 36.5t-55 19.5t-79.5 6h-50v-239z" />
<glyph unicode="C" horiz-adv-x="989" d="M18 538q0 78 21 149.5t58.5 133.5t90 113t116 87.5t136 56.5t150.5 20q43 0 86.5 -7t89.5 -22.5t95 -42.5q49 -28 101 -68l-106 -157q-47 34 -85.5 54.5t-70.5 31.5t-60 14.5t-54 3.5q-49 0 -95.5 -13.5t-87.5 -38t-75 -59t-58 -75.5t-38 -89q-13 -48 -13 -98 q0 -46 13.5 -91t38.5 -84.5t59 -73t74.5 -58t86.5 -37.5q47 -14 95 -14q27 0 54.5 4t60 15t70.5 32t85 55l108 -159q-54 -40 -102 -66.5t-93.5 -42.5t-90 -22t-90.5 -6q-76 0 -148 20t-135 56t-116 87t-91 112t-59 132t-21 147z" />
<glyph unicode="D" horiz-adv-x="932" d="M78 0v1082h246q85 0 161.5 -17t142 -49t118.5 -79t90.5 -107.5t57.5 -134t20 -157.5q0 -83 -21 -154.5t-58.5 -131.5t-91 -107t-118.5 -79t-141 -49t-160 -17h-246zM280 190h42q86 0 157 25t122 70t79 109t28 144t-28 145.5t-78.5 111t-122 70t-157.5 24.5h-42v-699z" />
<glyph unicode="E" horiz-adv-x="735" d="M78 0v1082h610v-193h-408v-209h396v-190h-396v-300h408v-190h-610z" />
<glyph unicode="F" horiz-adv-x="645" d="M78 0v1082h544v-191h-342v-211h334v-190h-334v-490h-202z" />
<glyph unicode="G" horiz-adv-x="1181" d="M26 540q0 76 21 147.5t58 133t90 112.5t117 88t137 57t153 20q149 0 279.5 -74t234.5 -223l-160 -121q-40 59 -82 101t-86 68.5t-90.5 39t-95.5 12.5q-52 0 -100 -13t-89 -36.5t-75.5 -56.5t-59 -73t-37.5 -86t-13 -96q0 -49 13 -94.5t37.5 -85.5t59 -73t75.5 -57t89 -37 t100 -13q62 0 117.5 19.5t100.5 54t78 82.5q32 48 48 106h-416v197h625q6 -45 6 -90q0 -39 -5 -77q-10 -82 -41.5 -154.5t-82 -134t-116 -105.5t-145 -69t-169.5 -25q-80 0 -153 20t-137 56t-117 87t-90 113t-58 133t-21 147z" />
<glyph unicode="H" horiz-adv-x="1016" d="M80 0v1082h202v-402h453v402h205v-1082h-205v488h-453v-488h-202z" />
<glyph unicode="I" horiz-adv-x="381" d="M88 0v1082h205v-1082h-205z" />
<glyph unicode="J" horiz-adv-x="381" d="M-160 -192l140 139q12 -12 20 -19t15 -11t13.5 -5.5t12.5 -1.5q10 0 18.5 3.5t15.5 10t11 15t4 18.5v1125h205v-1125q0 -50 -19.5 -94.5t-54.5 -77.5t-81 -52t-99 -19q-54 0 -102 22q-49 22 -99 72z" />
<glyph unicode="K" horiz-adv-x="930" d="M78 0v1082h202v-347l363 347h285l-547 -523l577 -559h-284l-394 383v-383h-202z" />
<glyph unicode="L" horiz-adv-x="557" d="M78 0v1082h202v-894h250v-188h-452z" />
<glyph unicode="M" horiz-adv-x="1308" d="M0 0l230 1082h126l298 -716l298 716h128l226 -1082h-206l-111 540l-14 99l-33 -97l-225 -542h-123l-230 551l-30 92l-14 -94l-115 -549h-205z" />
<glyph unicode="N" horiz-adv-x="1179" d="M78 0v1082h133l688 -724v724h203v-1082h-134l-688 727v-727h-202z" />
<glyph unicode="O" horiz-adv-x="1181" d="M26 540q0 76 21 147t58 133t89 113t115 87.5t135 57t150 20.5q76 0 148 -20t135 -57t115 -88t89 -112.5t57.5 -133t20.5 -147.5t-20.5 -147t-57.5 -133t-89 -113t-115 -87t-135 -56t-148 -20q-78 0 -150 20t-135 56t-115 87t-89 113t-58 133t-21 147zM228 540 q0 -49 13 -95t37.5 -86.5t58.5 -74.5t74.5 -58.5t87 -38t95.5 -13.5t95.5 13.5t86.5 38t74 58.5t58 74.5t37 86.5t13 95t-13 95.5t-37 87t-58 74t-74 57.5t-86.5 37.5t-95.5 13.5q-51 0 -97.5 -13.5t-87.5 -37t-74.5 -57t-57 -74t-36.5 -87t-13 -96.5z" />
<glyph unicode="P" horiz-adv-x="706" d="M78 0v1082h242q77 0 144.5 -18.5t117.5 -57t79 -98.5t29 -144q0 -56 -14 -101t-38 -80t-58.5 -60.5t-76 -42t-87.5 -24.5t-96 -8h-40v-448h-202zM280 641h42q38 0 68 7.5t52 22.5t34 38.5t12 56.5q0 36 -12.5 60t-35 38.5t-54.5 20.5t-70 6h-36v-250z" />
<glyph unicode="Q" horiz-adv-x="1181" d="M22 540q0 76 21 147.5t58 133t89 112.5t115 88t135 57t150 20q76 0 148 -20t134.5 -56t114.5 -86.5t89.5 -112t58 -132t20.5 -146.5q-1 -188 -117 -342l186 -205h-272l-61 76q-73 -43 -149 -66.5t-154 -23.5t-150.5 19.5t-135.5 56t-114.5 87t-88.5 112t-57 133.5 t-20 148zM223 540q0 -50 13.5 -97t37.5 -87.5t58 -74t75 -57.5t88 -37t97 -13q38 0 78 12t82 35l-180 185l151 128l174 -182q30 43 43.5 86.5t13.5 93.5q0 51 -13 99t-36 89.5t-56.5 75.5t-74 58t-87.5 37.5t-97 13.5t-96 -13.5t-87 -37.5t-75 -57.5t-58 -74t-37.5 -86.5 t-13.5 -96z" />
<glyph unicode="R" horiz-adv-x="798" d="M78 0v1082h238q52 0 101 -7t92 -22t78 -39t60.5 -59t39 -82.5t13.5 -108.5q0 -60 -16 -108t-45 -86t-70.5 -64t-91.5 -41l326 -465h-240l-287 412v-412h-198zM278 639h58q30 0 60 6t53 20.5t37 39t14 61.5q0 40 -15 65t-39 38t-55 17.5t-63 4.5h-50v-252z" />
<glyph unicode="S" horiz-adv-x="778" d="M20 293l178 82q24 -60 48 -98.5t47.5 -61.5t48 -32t51.5 -9q33 0 63 13t52 35t35.5 51t13.5 61q0 26 -16.5 46t-40.5 36t-50 28t-46 23q-34 18 -71 35.5t-71 37.5t-65 43t-54 52t-36 67q-13 36 -13 84q0 66 23.5 123.5t65 99t99.5 65.5t128 24q46 0 89.5 -13t84 -39 t78.5 -67t73 -97l-151 -122q-32 46 -56 74t-45 44t-39 21.5t-38 5.5q-24 0 -44.5 -8.5t-35 -24.5t-23 -37t-8.5 -47q0 -22 17.5 -41t56 -42t99 -53t146.5 -74q72 -38 109 -100.5t37 -149.5q0 -50 -14.5 -95t-40 -83.5t-60.5 -69t-76 -52.5t-87 -33t-93 -11q-253 0 -369 309z " />
<glyph unicode="T" horiz-adv-x="715" d="M2 891v191h710v-191h-253v-891h-203v891h-254z" />
<glyph unicode="U" horiz-adv-x="962" d="M78 422v660h204v-642q0 -60 8 -108.5t29 -83.5t60 -54.5t103 -19.5q45 0 77 10t54 27t35.5 41.5t20.5 54t9 63.5t2 70v642h204v-660q0 -96 -27 -176t-79 -138.5t-127 -91t-169 -32.5q-68 0 -125 15t-102 43t-78 67.5t-55 88t-33 105.5t-11 119z" />
<glyph unicode="V" horiz-adv-x="907" d="M2 1082h213l205 -574l34 -117l34 115l206 576h214l-392 -1082h-127z" />
<glyph unicode="W" horiz-adv-x="1595" d="M2 1082h211l191 -568l38 -137l50 131l250 574h120l248 -570l49 -133l35 129l188 574h214l-363 -1082h-123l-314 729l-308 -729h-126z" />
<glyph unicode="X" horiz-adv-x="846" d="M-2 0l307 549l-295 533h228l184 -326l178 326h230l-294 -531l308 -551h-228l-194 350l-192 -350h-232z" />
<glyph unicode="Y" horiz-adv-x="960" d="M2 1082h232l248 -412l245 412h233l-376 -630v-452h-207v452z" />
<glyph unicode="Z" horiz-adv-x="860" d="M39 0v148l508 743h-491v191h757v-144l-510 -750h510v-188h-774z" />
<glyph unicode="[" horiz-adv-x="450" d="M60 -242v1397h344v-184h-160v-1029h160v-184h-344z" />
<glyph unicode="\" horiz-adv-x="971" d="M51 1216h199l670 -1216h-205z" />
<glyph unicode="]" horiz-adv-x="450" d="M60 -58h159v1029h-159v184h344v-1397h-344v184z" />
<glyph unicode="^" horiz-adv-x="872" d="M10 393l358 727h134l358 -727h-176l-250 496l-246 -496h-178z" />
<glyph unicode="_" horiz-adv-x="817" d="M4 -47h809v-166h-809v166z" />
<glyph unicode="`" horiz-adv-x="444" d="M30 1030l193 64l193 -291l-140 -65z" />
<glyph unicode="a" horiz-adv-x="913" d="M39 379q0 80 27.5 149.5t79.5 121t126 81t166 29.5q54 0 107 -18t98 -50v60h193v-752h-193v62q-18 -14 -41.5 -28t-49.5 -24t-54 -16t-56 -6q-63 0 -117.5 14t-99 40t-79 62t-58.5 79.5t-36.5 93t-12.5 102.5zM232 379q0 -46 15 -85t42 -68t66 -45.5t85 -16.5 q49 0 87.5 16.5t65.5 46t40.5 70.5t13.5 90q0 43 -14.5 80t-41.5 64t-66 42t-89 15q-44 0 -81 -17.5t-65 -46.5t-43 -66.5t-15 -78.5z" />
<glyph unicode="b" horiz-adv-x="917" d="M78 0v1220h194v-505q48 29 99.5 42t105.5 13q61 0 114.5 -14t98 -39t79.5 -60.5t59.5 -78.5t37 -92.5t12.5 -102.5q0 -59 -15 -111t-41 -96t-63 -79t-81 -59t-93 -37t-99 -13q-54 0 -107 18t-107 60v-66h-194zM268 381q0 -46 14.5 -85.5t41 -68.5t65.5 -45t88 -16 q47 0 85 16.5t65 46t42 69t15 85.5q0 43 -15 81t-42.5 66.5t-65 45t-82.5 16.5q-52 0 -91 -15.5t-65.5 -43t-40.5 -66.5t-14 -86z" />
<glyph unicode="c" horiz-adv-x="780" d="M39 377q0 54 14.5 104t41 93.5t64.5 78.5t84.5 60t101 39t114.5 14q34 0 67.5 -4.5t68.5 -16t75 -30.5t86 -49l-82 -166q-42 28 -74 45t-57 26.5t-46 13t-43 3.5q-46 0 -86 -17t-70 -46t-47 -67.5t-17 -80.5q0 -43 17 -82t47 -68.5t70 -47t86 -17.5q22 0 43 3t46 13 t57 27t74 45l82 -164q-46 -30 -86 -49.5t-76 -31t-70 -15.5t-68 -4q-90 0 -166 30t-132 83t-87.5 124t-31.5 154z" />
<glyph unicode="d" horiz-adv-x="917" d="M39 381q0 53 12.5 102.5t36.5 92.5t59 78.5t79.5 60.5t98 39t115.5 14q54 0 105.5 -16t99.5 -52v520h195v-1222h-195v66q-45 -36 -95 -56t-108 -20q-63 0 -117.5 14t-99 40t-79 62t-58.5 80t-36.5 94t-12.5 103zM232 381q0 -46 15 -85.5t42 -68.5t66 -46t85 -17 q49 0 88 17t65.5 47t41 71t14.5 90q0 43 -14.5 80t-42.5 64.5t-67 43t-89 15.5q-44 0 -81 -17t-65 -46t-43 -67.5t-15 -80.5z" />
<glyph unicode="e" horiz-adv-x="860" d="M39 377q0 51 12.5 100t36.5 92t59 79t79 62.5t97 41t113 14.5q94 0 166 -33t121 -92t75 -141q26 -80 26 -178h-590q8 -36 27 -66t46.5 -51.5t61.5 -32.5q33 -12 71 -12q33 0 62.5 9t54.5 26t45 41q20 22 35 50l149 -102q-38 -53 -77 -90.5t-82 -62.5t-90.5 -36 t-100.5 -11q-62 0 -115 15t-97 41t-78.5 63t-58 81t-36 93t-12.5 100zM256 488h348q-46 100 -166 100q-30 0 -57 -7t-50.5 -20.5t-42.5 -32t-32 -40.5z" />
<glyph unicode="f" horiz-adv-x="465" d="M18 574v176h76v192q0 57 14 109.5t43 93t75.5 64.5t111.5 24q10 0 22 -0.5t27 -3.5t35 -9t45 -18l-49 -156q-16 3 -27.5 5.5t-20 4.5t-14.5 2.5t-12 0.5q-19 0 -29.5 -6.5t-16 -21t-7 -37.5t-2.5 -56v-188h172v-176h-172v-574h-195v574h-76z" />
<glyph unicode="g" horiz-adv-x="917" d="M24 -30h193q6 -58 23.5 -99.5t45.5 -67t64 -37.5t76 -12q60 0 101 16t67 46.5t37 76.5t14 107q0 4 -0.5 10t-0.5 12t-0.5 11.5t-0.5 9.5q-50 -36 -100.5 -49.5t-106.5 -13.5q-60 0 -112 15t-96 41t-79 63t-59.5 80t-37.5 92t-13 99q0 54 13.5 103.5t38.5 92t61.5 77.5 t82 60t98.5 39t113 14q56 0 108 -17t91 -53v64h195v-699q0 -36 -2 -76.5t-10 -83.5t-24 -86t-46 -81q-30 -37 -66.5 -64.5t-78 -45.5t-87.5 -27t-94 -9q-76 0 -146.5 22t-125.5 69t-91 121q-37 76 -45 180zM234 375q0 -46 15 -85.5t43 -69.5t66 -47t84 -17q49 0 87.5 16.5 t65.5 46.5t40.5 71.5t13.5 90.5q0 44 -14.5 81t-42.5 64t-67 42.5t-89 15.5q-44 0 -81 -17.5t-64 -46.5t-42 -66.5t-15 -78.5z" />
<glyph unicode="h" horiz-adv-x="809" d="M78 0v1222h194v-503q32 23 71.5 35t84.5 12q60 0 105 -11.5t79 -33t57 -50.5t37.5 -65t20.5 -78t6 -86v-442h-195v442q0 40 -4 69t-16 46t-35 25t-61 8q-46 0 -75 -15.5t-45.5 -44t-23 -69.5t-6.5 -91v-370h-194z" />
<glyph unicode="i" horiz-adv-x="370" d="M62 1006q0 24 9 46t26 38t40 25t49 9q27 0 50 -9t39.5 -25t26.5 -38t10 -46t-10 -46t-27.5 -38t-40 -25.5t-48.5 -9.5q-27 0 -49.5 9.5t-39.5 25.5t-26 38t-9 46zM88 0v752h194v-752h-194z" />
<glyph unicode="j" horiz-adv-x="372" d="M62 1006q0 24 9 45t26 37.5t40 26t49 9.5q27 0 50 -9.5t39.5 -26t26.5 -37.5t10 -45q0 -26 -10 -47.5t-27.5 -37.5t-40 -25t-48.5 -9q-27 0 -49.5 9t-39.5 25t-26 37.5t-9 47.5zM88 -438v1188h194v-1188h-194z" />
<glyph unicode="k" horiz-adv-x="782" d="M78 0v1222h194v-648l176 176h267l-328 -328l428 -422h-266l-277 276v-276h-194z" />
<glyph unicode="l" horiz-adv-x="372" d="M88 0v1224h196v-1224h-196z" />
<glyph unicode="m" horiz-adv-x="1157" d="M78 0v750h194v-62q19 21 38 34.5t38 21.5t38.5 11t41.5 3q44 0 85 -17.5t79 -54.5q43 39 94.5 56.5t107.5 17.5q61 0 106 -13t76.5 -35t51.5 -52t31.5 -65t16.5 -73q4 -40 4 -78v-444h-198v452q0 39 -3 65.5t-13 42t-27 22t-45 6.5q-33 0 -55.5 -12t-36.5 -34.5t-20 -56 t-6 -75.5v-410h-194v436q0 41 -4.5 69.5t-15.5 47t-29.5 27t-45.5 8.5q-24 0 -45.5 -16t-37.5 -43t-25 -63t-9 -75v-391h-192z" />
<glyph unicode="n" horiz-adv-x="794" d="M78 0v750h192v-62q37 38 75.5 55t76.5 17q60 0 105 -11t78 -32t55 -50t35 -64.5t18.5 -77t5.5 -87.5v-438h-195v438q0 46 -5 75t-17.5 45t-33.5 22q-20 6 -52 6q-33 0 -60 -19.5t-46 -50t-29.5 -69.5t-10.5 -79v-368h-192z" />
<glyph unicode="o" horiz-adv-x="905" d="M39 377q0 54 14.5 103.5t41.5 93.5t64.5 79.5t83 61t98.5 39.5t109 14q58 0 112 -13.5t100.5 -38t84.5 -59.5t65 -78.5t41.5 -94t14.5 -105.5q0 -56 -14.5 -106.5t-41.5 -94.5t-65 -79.5t-84.5 -60.5t-100.5 -38q-54 -14 -112 -14t-111 14t-98.5 39.5t-83 61t-63.5 79.5 t-40.5 94t-14.5 103zM236 377q0 -43 16.5 -81.5t45.5 -67t67.5 -45.5t80.5 -17q49 0 91 16t72.5 44t47.5 66.5t17 84.5q0 45 -17 84t-47.5 67t-72 44t-91.5 16q-44 0 -82 -16.5t-67 -45t-45 -67.5t-16 -82z" />
<glyph unicode="p" horiz-adv-x="899" d="M78 -438v1190h194v-60q50 38 99 53t100 17h14q43 0 85 -10q49 -12 92.5 -36t80 -59t63 -79.5t41.5 -97t15 -112.5q0 -54 -12 -103t-35.5 -92t-57.5 -78t-77.5 -60t-96.5 -39t-114 -14q-51 0 -100 13t-97 40v-473h-194zM270 360q0 -46 14 -82t40 -62t63.5 -40t83.5 -14 q42 0 77.5 16t61.5 43.5t41 64.5t15 80q0 46 -15 87t-41 71t-62 47t-79 17q-46 0 -82.5 -17t-62.5 -47.5t-40 -72t-14 -91.5z" />
<glyph unicode="q" horiz-adv-x="901" d="M39 368q0 59 15 111.5t41.5 96.5t63 79t79 59t90.5 37t96 13q27 0 54.5 -4t54 -13t51 -23t44.5 -32v58h196v-1188h-196v481q-20 -13 -44 -24t-49 -19t-51 -12t-50 -4q-90 0 -163 30t-125 82t-79.5 122t-27.5 150zM236 362q0 -44 14 -80t41 -62t64 -41t83 -15q42 0 78 16 t62 43.5t40.5 64.5t14.5 80q0 46 -15 87t-41.5 71t-63 47t-79.5 17q-46 0 -83 -17t-62.5 -47.5t-39 -72t-13.5 -91.5z" />
<glyph unicode="r" horiz-adv-x="522" d="M78 0v750h194v-60q14 18 31 31t34 21t33 12q18 4 32 4q22 0 40 -3t35 -8.5t33 -12.5q14 -6 30 -13l-98 -172q-12 8 -22 12.5t-18.5 7t-14.5 3t-8 0.5q-25 0 -43 -11t-29.5 -29t-18.5 -41.5t-10.5 -48t-4.5 -49.5t-1 -45v-348h-194z" />
<glyph unicode="s" horiz-adv-x="624" d="M18 221l176 65q12 -37 25 -61.5t28 -39.5t31 -21q18 -6 36 -6t34 6.5t28 18.5t19 28.5t7 34.5t-7 28.5t-19 18t-29 12.5t-38 11q-24 8 -51.5 19t-54.5 26t-52 33t-44 41.5t-30 51t-11 60.5q0 52 20 92.5t54.5 68.5t79 43t92.5 15q32 0 62 -7t59 -24t57.5 -45t56.5 -72 l-162 -90q-14 24 -26 37.5t-21.5 19t-16.5 6.5t-12 1q-12 0 -21.5 -4t-15.5 -10t-9 -13t-3 -14q0 -14 14 -24.5t38 -20.5t54 -20t61 -24t61 -32.5t54 -44.5t38 -60.5t14 -80.5q0 -58 -22.5 -106t-61 -83t-89.5 -54t-107 -19q-49 0 -93.5 14t-82.5 44t-68 75q-32 45 -52 106z " />
<glyph unicode="t" horiz-adv-x="510" d="M37 574v176h105v268h196v-268h150v-176h-150v-574h-196v574h-105z" />
<glyph unicode="u" horiz-adv-x="796" d="M78 312v438h194v-438q0 -44 5 -73t18 -46t38 -24t65 -7t64.5 7t38.5 24t18.5 46t4.5 73v438h195v-441q0 -70 -15.5 -129.5t-52.5 -103t-99 -68t-154 -24.5t-154 24.5t-99 68t-52 103.5q-15 62 -15 132z" />
<glyph unicode="v" horiz-adv-x="819" d="M4 750h209l176 -378l25 -65l22 68l168 375h211l-342 -750h-123z" />
<glyph unicode="w" horiz-adv-x="1274" d="M2 750h211l162 -363l29 -73l24 71l154 365h116l152 -354l28 -84l32 81l155 357h205l-332 -750h-123l-178 408l-172 -408h-123z" />
<glyph unicode="x" horiz-adv-x="868" d="M-8 0l315 393l-297 357h240l178 -220l178 220h246l-297 -361l317 -389h-241l-201 248l-200 -248h-238z" />
<glyph unicode="y" horiz-adv-x="907" d="M4 750h211l256 -512l227 512h207l-528 -1188h-209l200 450z" />
<glyph unicode="z" horiz-adv-x="786" d="M51 0v144l397 432h-376v174h663v-140l-399 -436h399v-174h-684z" />
<glyph unicode="{" horiz-adv-x="467" d="M39 400v118q30 22 48.5 38.5t29.5 31t14.5 28.5t3.5 31v227q0 68 12.5 120t47 88t95 55.5t156.5 23.5v-182q-46 -2 -72 -5t-38.5 -8.5t-15 -14.5t-2.5 -23v-244q0 -43 -4.5 -77t-13 -61.5t-21.5 -49.5t-31 -40q18 -19 31 -41.5t21.5 -50.5t13 -63t4.5 -78v-233 q0 -16 2.5 -26t15 -15.5t38.5 -8t72 -2.5v-184q-96 6 -156.5 26t-95 55t-47 86t-12.5 120v223q0 18 -4.5 33.5t-15.5 30.5t-29 32q-18 18 -47 40z" />
<glyph unicode="|" horiz-adv-x="446" d="M135 -14v1220h179v-1220h-179z" />
<glyph unicode="}" horiz-adv-x="467" d="M18 -62q46 0 72 2.5t39 8t16 15.5t3 26v233q0 43 4 78t12.5 63t22 51t30.5 41q-18 18 -31 40t-21.5 49.5t-12.5 61.5t-4 77v244q0 14 -3 23t-16 14.5t-39 8t-72 5.5v182q64 -2 112 -12t83 -26.5t57 -40.5t35.5 -55t19 -69t5.5 -84v-227q0 -18 3.5 -31.5t14 -28t29.5 -31 t49 -38.5v-118q-30 -23 -48 -40t-29 -32t-15 -29.5t-4 -34.5v-223q0 -46 -5.5 -83.5t-19 -68.5t-35.5 -54t-57 -40t-83 -27t-112 -14v184z" />
<glyph unicode="~" horiz-adv-x="938" d="M39 305q32 47 63.5 87t65.5 69.5t72 46t84 16.5q28 0 58 -8t59 -20t57 -26t53 -26t45 -20q18 -8 32 -8q10 0 20 4t23 18.5t29 41.5q18 26 40 71l165 -88q-27 -48 -56.5 -90.5t-63.5 -73.5t-73.5 -49t-85.5 -18q-29 0 -56 8t-52.5 20t-50 26.5t-48.5 27t-47.5 20.5 t-47.5 8q-10 0 -21 -4.5t-24.5 -17.5t-31.5 -36.5t-44 -62.5z" />
<glyph unicode="&#xa2;" horiz-adv-x="932" d="M140 557q0 69 21 132t59 114t90.5 87t115.5 52v121h176v-113q54 -11 109 -38.5t106 -71.5l-100 -156q-20 16 -35.5 28t-29.5 21.5t-26 16t-24 12.5v-412q12 6 24 13t25.5 16.5t30 23t37.5 31.5l102 -148q-28 -27 -55.5 -46.5t-54.5 -34t-54 -24.5t-55 -17v-138h-176v140 q-64 18 -117 55t-91 88t-58 114t-20 134zM320 557q0 -64 27.5 -114.5t78.5 -80.5v386q-50 -30 -78 -79.5t-28 -111.5z" />
<glyph unicode="&#xa3;" horiz-adv-x="866" d="M30 -2v188h64v238h-64v188h64v111q0 49 11 96t32 88.5t52 76.5t71 60.5t88 39.5t102 14q80 0 148.5 -31.5t119 -89t80.5 -139.5t32 -184h-206q0 65 -15 111.5t-39.5 76.5t-56 44.5t-63.5 14.5q-33 0 -60.5 -12.5t-48.5 -35.5t-32.5 -56t-11.5 -74v-111h201v-188h-201 v-238h493v-188h-760z" />
<glyph unicode="&#xa5;" horiz-adv-x="868" d="M-43 1084h231l246 -414l248 414h232l-187 -316h97v-184h-206l-44 -76h250v-184h-286v-326h-206v326h-281v184h246l-43 76h-203v184h95z" />
<glyph unicode="&#xa9;" horiz-adv-x="1212" d="M41 542q0 78 20 149.5t56.5 134t88.5 113.5t114.5 88t135 57t150.5 20t149 -20t134 -57t114 -88t88 -113.5t57 -134t20 -149.5t-20 -150t-57 -135t-88 -114.5t-114 -88t-134 -56.5t-149 -20t-150.5 20t-135 56.5t-114.5 88t-88.5 114.5t-56.5 135t-20 150zM168 542 q0 -62 15.5 -118t43.5 -104.5t67.5 -88t88.5 -67.5t105 -44t118 -16q60 0 115.5 16t104 44t88 67.5t68 88t43.5 104.5t15 118q0 60 -15 116t-43 104.5t-68 88t-88 67.5t-104 43.5t-116 15.5q-62 0 -118 -15.5t-105 -43.5t-88.5 -68t-67.5 -88t-43.5 -104t-15.5 -116z M289 536q0 48 11.5 93.5t33.5 84.5t52 70.5t68 54.5t82 35.5t92 12.5q66 0 125 -24.5t115 -72.5l-76 -122q-28 27 -51 43t-42 24.5t-37 11.5t-36 3q-42 0 -78 -17t-62.5 -46t-42 -68t-15.5 -83q0 -43 16 -81.5t42.5 -68.5t62 -47t75.5 -17q18 0 39 4t44.5 14t48 27t49.5 45 l71 -123q-57 -50 -119 -77q-63 -28 -131 -28q-74 0 -135.5 28t-106.5 76t-70 112t-25 136z" />
<glyph unicode="&#xab;" horiz-adv-x="708" d="M24 459l258 307l116 -108l-166 -199l166 -199l-116 -108zM320 459l258 307l114 -108l-164 -199l164 -199l-114 -108z" />
<glyph unicode="&#xad;" horiz-adv-x="588" d="M53 318v164h481v-164h-481z" />
<glyph unicode="&#xae;" horiz-adv-x="1270" d="M39 574q0 82 21.5 156.5t60.5 140t94 119t121 91.5t142.5 59t158.5 21t157.5 -21t141.5 -59.5t120.5 -92t93 -119t60 -140t21.5 -155.5q0 -82 -21.5 -157.5t-60 -141t-93 -119.5t-120.5 -93t-141.5 -60t-157.5 -21t-158.5 21t-143 60t-121 93t-93.5 119.5t-60.5 141 t-21.5 157.5zM168 574q0 -65 16.5 -124.5t47 -111.5t73 -94t94.5 -71.5t112.5 -46t125.5 -16.5q64 0 123.5 16.5t111.5 45.5t94 69.5t72 90t47 105.5t17 116q0 66 -17 127.5t-47 114.5t-72.5 97t-94 75t-111 48t-123.5 17q-66 0 -126.5 -16t-112.5 -46t-94.5 -71.5 t-73 -92.5t-46.5 -109.5t-16 -122.5zM414 274v600h272q116 0 171 -46t55 -132q0 -38 -11.5 -67t-31 -50t-46.5 -36t-57 -23q38 -60 80 -122q42 -64 84 -124h-160l-152 242h-76v-242h-128zM542 633h105q24 0 46.5 -0.5t46.5 4.5q26 6 35 18t9 35q0 18 -9 29t-24.5 17t-36 8 t-44.5 2h-128v-113z" />
<glyph unicode="&#xbb;" horiz-adv-x="708" d="M24 260l164 199l-164 199l116 108l258 -307l-258 -307zM320 260l164 199l-164 199l114 108l258 -307l-258 -307z" />
<glyph unicode="&#xbc;" horiz-adv-x="1292" d="M106 948v132h236v-596h-133v464h-103zM211 0l760 1080h163l-759 -1080h-164zM760 98v68l332 475h80v-420h65v-123h-65v-98h-128v98h-284zM952 221h92v133z" />
<glyph unicode="&#xbd;" horiz-adv-x="1292" d="M106 948v132h236v-596h-133v464h-103zM154 0l760 1080h163l-759 -1080h-164zM805 387q0 66 18.5 114.5t49.5 80.5t70 47.5t79 15.5q44 0 82.5 -16.5t67.5 -44.5t46 -65t17 -81q0 -34 -8.5 -62.5t-23.5 -54t-34 -47.5t-39 -42l-98 -103h201v-129h-405v100l216 236 q10 11 21 24t19 26.5t13 27.5t5 26q0 16 -6.5 29t-17.5 23t-25.5 16t-30.5 6q-18 0 -33 -7t-26 -22t-17 -39t-6 -59h-135z" />
<glyph unicode="&#xbe;" horiz-adv-x="1292" d="M90 668h127q0 -54 21.5 -79.5t56.5 -25.5q18 0 32 6.5t24.5 16.5t15.5 24.5t5 30.5q0 43 -22 61q-22 19 -72 19v100q27 0 44 6t26.5 16.5t12.5 25.5t3 32q0 30 -17 45.5t-46 15.5q-12 0 -24.5 -5t-23 -17t-16.5 -32q-5 -20 -3 -50h-126q2 110 52 168t143 58 q40 0 74.5 -14.5t59.5 -39t40 -58.5t15 -73q0 -36 -13 -66t-37 -55q26 -26 42 -61t16 -74q0 -43 -15.5 -79t-43 -62t-65.5 -41t-83 -15q-38 0 -74.5 12t-65.5 38t-46 68q-17 44 -17 104zM260 0l760 1080h164l-760 -1080h-164zM760 98v68l332 475h80v-420h65v-123h-65v-98 h-128v98h-284zM952 221h92v133z" />
<glyph unicode="&#xd7;" horiz-adv-x="794" d="M37 135l254 254l-254 254l109 109l254 -254l254 254l108 -109l-254 -254l254 -254l-108 -109l-254 254l-254 -254z" />
<glyph unicode="&#xf7;" horiz-adv-x="805" d="M39 316v166h729v-166h-729zM284 150q0 24 9 44t24 35t34.5 23t41.5 8q24 0 44.5 -8t35 -23t23 -35t8.5 -44v2q0 -24 -9 -44.5t-23.5 -35t-34 -23t-41.5 -8.5q-24 0 -44.5 8.5t-35 23.5t-23.5 35t-9 42zM284 645q0 24 9 44.5t24 35t34.5 23t41.5 8.5q24 0 44.5 -9 t35 -23.5t23 -34.5t8.5 -42q0 -24 -9 -44.5t-23.5 -35t-34 -23t-41.5 -8.5q-24 0 -44.5 9t-35 23.5t-23.5 34t-9 42.5z" />
<glyph unicode="&#xe01;" horiz-adv-x="995" d="M28 662q38 64 85 114.5t102.5 86t118 54.5t129.5 19q66 0 125 -14t109.5 -39.5t91 -62t69 -82.5t44.5 -99t16 -113v-526h-199v526q0 49 -18.5 90.5t-51.5 71.5t-80 47t-106 17q-109 0 -187 -78l50 -54v-620h-199v557z" />
<glyph unicode="&#xe02;" horiz-adv-x="860" d="M0 744q30 50 62 86t67 59.5t74 35t81 11.5q59 0 111.5 -20t91.5 -55t62 -84t23 -107q0 -40 -7 -70.5t-20 -55t-31.5 -44t-41.5 -37t-50.5 -34.5t-57.5 -36q-14 -10 -24.5 -19.5t-17 -20.5t-10 -25t-3.5 -31q0 -27 10.5 -50t29.5 -40t44 -27t55 -10t55.5 10t43.5 27 t28.5 40t10.5 50v625h196v-625q0 -64 -26 -121t-71 -99.5t-106 -66.5t-131 -24q-68 0 -129 24t-106 66.5t-72 99t-27 121.5q0 58 16 99.5t43.5 74.5t66 61t86.5 56q14 9 24 16.5t16.5 16.5t9.5 19q3 12 3 26q0 42 -25.5 66t-67.5 24q-12 0 -25.5 -4t-29.5 -15.5t-34.5 -33.5 t-40.5 -58z" />
<glyph unicode="&#xe03;" horiz-adv-x="839" d="M10 809l119 133l107 -84l98 80q112 -42 167.5 -110t55.5 -156q0 -39 -7 -68.5t-19.5 -52t-30.5 -40t-40 -33.5t-47 -31t-53 -33q-18 -12 -31 -23.5t-21 -25t-12.5 -30.5t-4.5 -38q0 -26 10.5 -48.5t28.5 -40.5t43 -28t55 -10t55 10t43 28t28.5 41t10.5 48v625h197v-625 q0 -43 -12 -83t-34 -74t-52 -62t-67 -48t-80 -31t-89 -11q-68 0 -129 24t-106.5 66t-72 98t-26.5 121q0 54 14 94.5t40 74t63 61.5q37 29 82 57q13 8 26 16.5t23 19t16 23.5t6 31q0 10 -3 21t-11 24l-110 -91z" />
<glyph unicode="&#xe04;" horiz-adv-x="962" d="M78 0v557q0 52 14.5 99.5t41 89.5t63.5 76t82 58.5t96 38t107 13.5q55 0 106.5 -13.5t96 -38t81.5 -58.5t63.5 -76t40.5 -90t14 -99v-557h-198v557q0 39 -16 74t-44 61t-65 41t-79 15q-44 0 -82 -15t-65 -41t-43 -61t-16 -74h206v-182h-206v-375h-198z" />
<glyph unicode="&#xe05;" horiz-adv-x="1007" d="M78 0v582q0 59 18 113t54 101.5t89 87.5t123 70l142 -120l143 118q68 -30 121 -69t89 -86.5t54.5 -102t18.5 -112.5v-582h-199v582q0 42 -16.5 79t-46.5 66l-166 -139l-162 139q-30 -30 -47 -67.5t-17 -79.5v-19h226v-186h-226v-375h-198z" />
<glyph unicode="&#xe06;" horiz-adv-x="968" d="M20 819l103 123l86 -66l84 68q92 -36 138 -92t46 -133q0 -40 -14.5 -71.5t-36.5 -56.5t-47 -47t-47 -44t-37 -46t-15 -54q0 -31 9 -60t25.5 -54.5t39 -46.5t48.5 -36.5t56 -24t60 -8.5q36 0 68 10t55.5 30.5t37 50t13.5 69.5v592h199v-592q0 -54 -14.5 -101t-39.5 -85 t-59.5 -68t-75 -50.5t-84.5 -31t-90 -10.5q-34 0 -67 6t-65 19t-61 34t-55 51v-94h-196v381q0 48 11.5 84.5t30 65.5t40.5 52t44 41t41 34t29 32q2 4 4 11t3 15t1 16q-2 8 -4 14l-79 -72z" />
<glyph unicode="&#xe07;" horiz-adv-x="813" d="M22 670l185 65l268 -545q10 -16 31 -16q14 0 23 9t9 22v533h-124v184h321v-717q0 -44 -18.5 -84t-49.5 -69.5t-72.5 -46.5t-88.5 -17q-36 0 -68 9t-59 26t-48 41q-21 22 -36 50z" />
<glyph unicode="&#xe08;" horiz-adv-x="893" d="M28 545q8 92 43 164.5t87.5 122.5t120 76t143.5 26q54 0 105 -13t94.5 -36.5t79 -57t61 -73.5t39.5 -87t14 -97q-1 -68 -25 -126l-174 -444h-184l-198 542h206l86 -237l78 201q12 34 12 64q0 36 -15 68t-41 56.5t-62 39t-76 14.5q-47 0 -81 -18t-57.5 -46.5t-36.5 -65 t-19 -73.5h-200z" />
<glyph unicode="&#xe09;" horiz-adv-x="919" d="M22 375v180h252v-229q0 -41 16 -71.5t42 -49.5t59 -27t68 -5t68 16t59 37t41.5 58t15.5 78v208q0 36 -15.5 68.5t-41.5 57t-62 38.5t-76 14q-30 0 -59 -6.5t-54 -21t-45.5 -39.5t-33.5 -61h-207q27 82 68 141.5t93 98t112 56.5t126 18q54 0 104 -13t93.5 -36.5t79 -57 t61.5 -73.5t40 -87t14 -97v-572h-197v76q-48 -44 -104.5 -65t-116.5 -21q-43 2 -85.5 13.5t-80.5 32.5t-70.5 51t-56.5 67.5t-37 81.5q-14 46 -14 96v45h-56z" />
<glyph unicode="&#xe0a;" horiz-adv-x="878" d="M6 748q30 52 63 88t69 60t75.5 35t81.5 11t81 -11t72.5 -31t60.5 -48t44 -62l211 220l141 -130l-163 -170q23 -30 34 -66q12 -34 12 -76v-267q0 -66 -26 -122.5t-71 -99.5t-106 -67t-131 -24q-68 0 -128.5 24t-106 67t-72 100t-26.5 122q0 42 7 75t20.5 59t32.5 47 t43 39.5t52 35.5t60 37q14 9 24.5 17t17 16.5t8.5 18.5q3 12 3 26q0 42 -25.5 65t-70.5 23q-12 0 -24.5 -4t-27.5 -17t-31.5 -36t-37.5 -60zM318 301q0 -27 10.5 -50t29 -40t43.5 -27t53 -10t53.5 10t44 27t29.5 40t11 50v267q0 12 -2 23t-10 25q-7 -42 -25 -71t-43.5 -52 t-57 -42.5t-67.5 -42.5q-16 -10 -28.5 -20t-21.5 -22.5t-14 -28t-5 -36.5z" />
<glyph unicode="&#xe0b;" horiz-adv-x="874" d="M24 805l116 139l114 -82l100 84q71 -28 119.5 -66t75.5 -86l207 220l141 -132l-159 -172q20 -30 33 -66q13 -34 13 -76v-269q0 -43 -12 -83t-34 -74.5t-52.5 -63t-68 -48.5t-80.5 -31t-89 -11q-69 0 -129.5 24t-106 66.5t-72 99t-26.5 121.5q0 52 12 90.5t31 67.5 t43 50.5t49 38.5t49 31.5t43 29t30.5 32t11.5 39.5q0 14 -2.5 25t-8.5 20l-114 -95zM312 299q0 -26 10.5 -48.5t29 -40.5t43.5 -28t53 -10q30 0 55.5 10t43.5 27.5t28.5 41t10.5 50.5v264q0 12 -3 23.5t-9 25.5q-8 -39 -26 -67t-43 -50.5t-56.5 -42.5t-65.5 -42 q-16 -12 -29.5 -23t-22.5 -24t-14 -29t-5 -37z" />
<glyph unicode="&#xe0c;" horiz-adv-x="1569" d="M24 660q39 64 88 115t105.5 87t119.5 55t132 19q67 0 127.5 -14t112 -39.5t92.5 -62t70 -82.5t45 -99t16 -113v-114q0 -58 19.5 -102t50 -74.5t68.5 -46t75 -15.5q28 0 54 9t45.5 29t31.5 49.5t12 70.5v590h203v-590q0 -52 -12.5 -97.5t-35.5 -84t-54 -68.5t-68 -51 t-78 -32t-84 -11q-60 2 -116.5 24t-110.5 72v-84h-201v526q0 49 -18.5 90.5t-53.5 71.5t-83 47t-107 17q-54 0 -102.5 -20t-90.5 -60l50 -50v-438l133 2v-186h-332v555z" />
<glyph unicode="&#xe0d;" horiz-adv-x="1560" d="M26 662q39 64 88 115t105.5 86t119.5 54t130 19t127.5 -14t112 -39.5t93.5 -62t71 -82.5t45 -99t16 -113v-194q0 -33 13 -62.5t36 -51t55 -34t70 -12.5t69.5 12t54 33t35.5 51t13 64v592h200v-926q0 -49 -13 -94.5t-38 -84.5t-60 -71.5t-77.5 -56t-92 -35.5t-101.5 -12 q-110 0 -201 56.5t-164 174.5l170 103q24 -43 47.5 -72t47.5 -46.5t48 -24.5t52 -7q38 0 71 12.5t58 35t40 53t15 67.5v43q-36 -30 -81 -41.5t-93 -11.5q-52 0 -100 12t-90 35t-76 55t-58 70.5t-37.5 82.5t-13.5 91v196q0 49 -18.5 90t-52.5 70.5t-83 45.5t-110 16 q-54 0 -103 -20q-50 -20 -88 -56l52 -50v-438h133v-186h-336v557z" />
<glyph unicode="&#xe0e;" horiz-adv-x="1009" d="M43 -250q54 38 103 64t95 42.5t90.5 24t90.5 7.5q64 0 124 -13t118 -39l69 66v624q0 49 -18 90.5t-51.5 70.5t-80.5 46t-106 17q-26 0 -51 -6t-49 -16t-45.5 -24t-40.5 -32l49 -52v-620h-284v186h86v369l-99 105q38 64 85 115t102.5 86t117.5 54t129 19q98 0 181.5 -30 t144.5 -84.5t95 -129t34 -164.5v-692l-244 -225q-42 30 -78 50t-67.5 32t-61 17.5t-59.5 5.5t-60 -5.5t-62.5 -18t-69 -32.5t-78.5 -51z" />
<glyph unicode="&#xe0f;" horiz-adv-x="1009" d="M43 660q39 64 86.5 115t102 86t116.5 54t129 19q66 0 125.5 -14t110 -39.5t91 -62t69.5 -82.5t44 -99t15 -113v-686l-266 -236l-160 144l-160 -144l-272 244l114 124l164 -140l154 137l154 -137l75 64v632q0 49 -18.5 90t-52.5 70.5t-81 45.5t-106 16q-51 0 -100 -20 t-86 -56l49 -52v-620h-284v186h86v369z" />
<glyph unicode="&#xe10;" horiz-adv-x="893" d="M28 545q8 92 43 163.5t87.5 121.5t120 76t143.5 26q46 0 89 -9.5t85 -29.5l116 129l150 -129l-112 -125q31 -44 48 -94t17 -106q0 -25 -1 -45t-4 -38.5t-8.5 -39t-15.5 -47t-25 -61.5t-35 -82.5t-47 -110.5t-63 -146h-184l-200 544h206l88 -239l78 201q12 34 12 64 q0 36 -15 68t-41 56.5t-62 39t-76 14.5q-47 0 -81.5 -17.5t-58 -46t-37 -64.5t-19.5 -73h-198zM60 -152l118 115l164 -139l166 146l160 -140q-2 8 -2 29v45v57h186v-201l-182 -160l-164 150l-166 -150z" />
<glyph unicode="&#xe11;" horiz-adv-x="999" d="M-22 834l104 106l68 -66l88 68q94 -37 140 -91.5t46 -127.5q0 -30 -9 -57t-22.5 -53t-29 -51.5t-29 -52.5t-22.5 -56t-9 -62v-19l342 558q74 -7 128.5 -31t90 -61.5t53 -85.5t17.5 -103v-649h-199v658q0 14 -1.5 25t-6.5 19l-443 -702h-170v372q0 36 5.5 68t14 60 t19.5 52t23 46q13 26 25.5 48t22 40.5t14 34t0.5 29.5l-88 -84z" />
<glyph unicode="&#xe12;" horiz-adv-x="1591" d="M51 448q0 96 24.5 175.5t69.5 142t110 107t145 71.5l130 -102l134 102q68 -24 121 -57t91 -76t58 -97t20 -118l2 -190q0 -56 19 -100t50 -73.5t68 -45t75 -15.5q28 0 54 9t45.5 29t30.5 50q12 30 12 70v592h204v-592q0 -79 -27 -142.5t-71.5 -107t-102.5 -67t-121 -23.5 q-28 0 -58.5 5.5t-61 17t-60.5 28.5t-58 41v-82h-200v592q0 42 -19 77t-49 58l-156 -115l-155 117q-25 -18 -47 -43.5t-39 -60t-27 -78.5q-10 -45 -10 -99q0 -64 15 -115t41 -87t62 -55t78 -19q12 0 23 3t23 11t26 20t33 30l143 -132q-38 -32 -69.5 -54t-61 -36.5 t-57.5 -21.5q-30 -6 -60 -6q-67 0 -122.5 17t-99.5 48t-77 74.5t-55 95t-32.5 109.5t-10.5 118z" />
<glyph unicode="&#xe13;" horiz-adv-x="1558" d="M26 660q39 64 87.5 115t104.5 86t119 54t130 19q100 0 185.5 -30t147.5 -84t97 -129t35 -165v-196q0 -40 12 -70t31.5 -50t45 -30t54.5 -10q36 0 72.5 14t66 41t48 66t18.5 90v541h200v-922h-200v74q-54 -48 -112 -68t-118 -18q-64 2 -121 27t-101 70t-69.5 107 t-25.5 138v196q0 49 -18.5 90.5t-52.5 70.5t-83 46t-110 17q-54 0 -103 -21q-50 -21 -88 -57l48 -50v-438h135v-184h-334v555z" />
<glyph unicode="&#xe14;" horiz-adv-x="1011" d="M51 442q0 86 18.5 156t51.5 124t78 94t97 66t109 39t115 13q51 0 101.5 -11t96.5 -32t86 -52t68.5 -71t45 -89t16.5 -107v-574h-201v570q0 45 -20.5 80.5t-54.5 59t-77 35t-88 7.5t-88.5 -23t-77 -56.5t-54.5 -94t-21 -134.5q0 -62 15 -111.5t41 -84.5t62 -53.5t78 -18.5 q12 0 23 2t22 7.5t24 16t28 26.5l127 -130q-30 -32 -58 -52t-54.5 -32t-54 -17t-57.5 -5q-99 0 -173.5 36t-124 98t-74.5 144t-25 174z" />
<glyph unicode="&#xe15;" horiz-adv-x="1018" d="M53 446q0 96 23.5 175.5t67.5 142t107 107t142 71.5l131 -100l130 100q65 -24 117.5 -57t90.5 -76t58 -97t20 -118v-594h-198v590q0 42 -17 76t-47 57l-156 -117l-156 121q-24 -18 -45 -44.5t-37 -61.5t-25 -79t-9 -96q0 -62 15 -112t41 -85t61 -54t75 -19q12 0 23 2 t23 9t26 19q15 14 33 34l129 -132q-33 -34 -62 -56.5t-57 -36t-56 -18.5q-29 -5 -59 -5q-64 0 -117.5 17t-97 47t-76 72t-54.5 92.5t-33 108t-11 117.5z" />
<glyph unicode="&#xe16;" horiz-adv-x="995" d="M28 662q40 64 88 115t102 86t116 54t129 19q66 0 125 -14t109.5 -39.5t91 -62t69 -82.5t44.5 -99t16 -113v-526h-199l2 526q0 49 -18.5 90.5t-52.5 71.5t-81 47t-106 17q-26 0 -51 -6t-49 -16t-46 -24q-23 -14 -41 -32l50 -52v-438h130v-184h-329v557z" />
<glyph unicode="&#xe17;" horiz-adv-x="962" d="M78 0v924h198v-86q58 51 116 75.5t122 24.5q46 0 92 -10t87 -29t76 -48t61 -67.5t40 -86.5t14 -105v-592h-198v592q0 39 -13.5 69.5t-37 50.5t-55.5 31t-68 11q-46 0 -89 -19t-75 -50t-52 -72t-20 -87v-526h-198z" />
<glyph unicode="&#xe18;" horiz-adv-x="932" d="M62 712q0 32 13.5 61.5t38 55t58.5 45.5t74 34t85.5 22t92.5 8q63 2 126.5 -12t121.5 -46t106.5 -84t81.5 -126l-176 -60q-20 41 -49 70.5t-62.5 49.5t-69.5 30.5t-70.5 13.5t-65.5 -0.5t-54 -11.5t-37 -20t-14 -27q0 -12 14 -22.5t35.5 -20t48 -17t50.5 -13.5t44 -10 t28 -6q41 -10 84.5 -22t84.5 -28.5t78 -39.5t65 -54t44 -71.5t16 -92.5t-14.5 -97.5t-41 -82.5t-62.5 -65.5t-79 -48.5t-91 -30t-99 -10q-52 0 -100.5 10t-91.5 30t-79 48.5t-62.5 65.5t-41 82.5t-14.5 97.5v168h196v-166q0 -34 14 -62t38 -47t60 -30t81 -11q44 0 79 11 t59.5 30t38.5 46t14 61q0 24 -9 43t-25 33t-38 25t-49 20t-56.5 16.5t-60.5 15.5q-42 10 -84.5 20.5t-82 24t-74.5 31t-61 41.5t-41 54t-15 70z" />
<glyph unicode="&#xe19;" horiz-adv-x="962" d="M78 330v592h198v-592q0 -39 14 -69t37.5 -50.5t55 -30.5t67.5 -10q28 0 57 10t55 28t49 42t39.5 52t26 58t9.5 60v502h198v-924h-198v106q-24 -30 -53 -52.5t-61 -37.5t-65 -22.5t-67 -7.5q-46 0 -90 10.5t-84.5 31t-75 50.5t-59.5 68t-39 85t-14 101z" />
<glyph unicode="&#xe1a;" horiz-adv-x="962" d="M78 362v560h198v-560q0 -38 16 -72t43 -60t65 -41t82 -15q42 0 79 15t65 41t44 60t16 72v560h198v-560q0 -52 -14 -100t-40.5 -90t-63.5 -76t-81.5 -58t-96.5 -37t-106 -13q-56 0 -107 13t-96 37t-82 58t-63.5 76t-41 90t-14.5 100z" />
<glyph unicode="&#xe1b;" horiz-adv-x="962" d="M78 362v560h198v-560q0 -38 16 -72t43 -60t65 -41t82 -15q42 0 79 15t65 41t44 60t16 72v971h198v-971q0 -52 -14 -100t-40.5 -90t-63.5 -76t-81.5 -58t-96.5 -37t-106 -13q-56 0 -107 13t-96 37t-82 58t-63.5 76t-41 90t-14.5 100z" />
<glyph unicode="&#xe1c;" horiz-adv-x="1079" d="M78 252v305q0 52 15 100.5t44 90.5t70 76t94 58t116 37t134 13v-184q-70 0 -122 -16t-85.5 -42t-50.5 -61t-17 -72v-305q0 -16 6.5 -29.5t17.5 -24t26 -16.5q14 -6 32 -6t33 6t26 16.5t17 24t6 29.5v348h199v-348q0 -16 6.5 -29.5t17.5 -24t26 -16.5t32 -6q18 0 32.5 6 t25.5 16.5t17.5 24t6.5 29.5v670h199v-670q0 -54 -22.5 -102t-61 -83t-89.5 -55t-108 -20q-105 0 -183 61q-74 -61 -180 -61q-58 0 -108.5 20t-89 55t-60.5 83t-22 102z" />
<glyph unicode="&#xe1d;" horiz-adv-x="1079" d="M78 252v305q0 52 15 100.5t44 90.5t70 76t94 58t116 37t134 13v-184q-70 0 -122 -16t-85.5 -42t-50.5 -61t-17 -72v-305q0 -16 6.5 -29.5t17.5 -24t26 -16.5q14 -6 32 -6t33 6t26 16.5t17 24t6 29.5v348h199v-348q0 -16 6.5 -29.5t17.5 -24t26 -16.5t32 -6q18 0 32.5 6 t25.5 16.5t17.5 24t6.5 29.5v1081h199v-1081q0 -54 -22.5 -102t-61 -83t-89.5 -55t-108 -20q-105 0 -183 61q-74 -61 -180 -61q-58 0 -108.5 20t-89 55t-60.5 83t-22 102z" />
<glyph unicode="&#xe1e;" horiz-adv-x="1116" d="M78 260v662h198v-662q0 -18 7 -33t19 -26.5t29 -18t37 -6.5t36.5 6.5t28.5 18t19 26.5t7 33v662h199v-662q0 -18 6.5 -33t18.5 -26.5t29 -18.5q18 -6 38 -6t36 6.5t28.5 18t20 26.5t7.5 33v662h196v-662q0 -58 -23 -107t-62 -85.5t-92 -57t-111 -20.5q-110 0 -191 68 q-81 -68 -191 -68q-60 0 -112.5 20.5t-92 57t-62.5 85.5t-23 107z" />
<glyph unicode="&#xe1f;" horiz-adv-x="1116" d="M78 260v662h198v-662q0 -18 7 -33t19 -26.5t29 -18t37 -6.5t36.5 6.5t28.5 18t19 26.5t7 33v662h199v-662q0 -18 6.5 -33t18.5 -26.5t29 -18.5q18 -6 38 -6t36 6.5t28.5 18t20 26.5t7.5 33v1073h196v-1073q0 -58 -23 -107t-62 -85.5t-92 -57t-111 -20.5q-110 0 -191 68 q-81 -68 -191 -68q-60 0 -112.5 20.5t-92 57t-62.5 85.5t-23 107z" />
<glyph unicode="&#xe20;" horiz-adv-x="1009" d="M43 662q39 64 86.5 114.5t102 86t116.5 54.5t129 19q66 0 125.5 -14t110 -39.5t91 -62t69.5 -82.5t44 -99t15 -113v-526h-197v526q0 49 -18.5 90.5t-52.5 71.5t-81 47t-106 17q-51 0 -99 -21t-87 -57l49 -52v-622h-284v184h86v373z" />
<glyph unicode="&#xe21;" horiz-adv-x="962" d="M78 -2v924h198v-502q0 -30 10 -60t26 -58t39 -52t49 -42t55 -28t57 -10q36 0 68 10t55.5 30.5t37 50t13.5 69.5v592h198v-592q0 -54 -14 -101t-39 -85t-59 -68t-74.5 -50.5t-85 -31t-90.5 -10.5q-33 0 -66.5 7.5t-65 22.5t-60.5 38q-30 22 -54 52v-106h-198z" />
<glyph unicode="&#xe22;" horiz-adv-x="927" d="M66 364l116 118q-24 22 -43 43t-33 45.5t-22 53t-8 64.5q0 52 20 97t54 78t80 52t98 19q27 0 51.5 -5.5t51.5 -19t56.5 -35.5t65.5 -55l-133 -131q-24 22 -39 34t-25 17.5t-16 6.5q-6 2 -12 2q-14 0 -26 -5t-20.5 -13t-13 -19t-4.5 -23q0 -22 25 -47l161 -162l-182 -180 q12 -28 30.5 -51t42.5 -40t53.5 -26.5t61.5 -9.5q42 0 79 15.5t64 42t43 61.5t16 75v556h190v-556q0 -53 -14 -101.5t-40 -90.5t-61.5 -76t-79 -59t-93.5 -38t-104 -13q-50 0 -97.5 12t-90 35.5t-77.5 57t-62 75.5t-43 92q-16 48 -20 104z" />
<glyph unicode="&#xe23;" horiz-adv-x="878" d="M70 316l184 61q8 -62 25 -101.5t41 -63.5t54 -33t64 -9q36 0 68 11t55 30t36 47t13 62q0 30 -24 52t-80 38q-36 10 -81 19t-91.5 21t-91 29t-78.5 41.5t-55 59.5q-21 36 -21 84q0 47 14 85.5t39 69.5t58 54t70 38.5t77 23t78 7.5q35 0 71.5 -5t71.5 -17.5t69 -32 t63.5 -47.5t55 -66.5t43.5 -87.5l-178 -66q-18 40 -38 67.5t-44.5 43.5t-52 22.5t-59.5 6.5q-37 0 -64.5 -8t-46 -21.5t-27.5 -30.5q-10 -16 -10 -34q0 -12 7 -19t18 -12t26 -8t33 -9q43 -12 92.5 -23t98.5 -25t94 -33t79 -48.5t54.5 -70t20.5 -98.5q0 -56 -14.5 -102 t-40.5 -83t-61 -65t-75 -47t-83 -28t-87 -9q-41 0 -82 8t-79.5 25t-72.5 43t-62 63t-47 84t-27 107z" />
<glyph unicode="&#xe24;" horiz-adv-x="995" d="M28 662q40 64 88 115t102 86t116 54t129 19q66 0 125 -14t109.5 -39.5t91 -62t69 -82.5t44.5 -99t16 -113v-876h-199l2 876q0 49 -18.5 90.5t-52.5 71.5t-81 47t-106 17q-26 0 -51 -6t-49 -16t-46 -24q-23 -14 -41 -32l50 -52v-438h130v-184h-329v557z" />
<glyph unicode="&#xe25;" horiz-adv-x="917" d="M62 576q6 66 24 118t47 91.5t65 67t77.5 45.5t85.5 26q43 8 87 8q45 0 91.5 -9.5t90.5 -29t82 -48.5t66 -68t45 -88t17 -109v-580h-191v258q0 40 -15.5 72t-42 54t-62.5 33q-37 11 -77 11q-38 0 -72 -11t-59.5 -32.5t-41 -52.5t-15.5 -70q0 -18 4.5 -35t16 -35t31.5 -39 t52 -47l-134 -132q-43 34 -73.5 69t-49 70t-27 72.5t-8.5 76.5q0 52 14 99t39.5 86t60.5 70t76.5 53t89.5 33q46 11 96 11q26 0 53.5 -4t54 -11t50.5 -18t42 -24v35q0 38 -16 67t-43.5 48.5t-65 30t-79.5 10.5q-46 0 -80 -11t-58.5 -33t-39 -54t-20.5 -74h-188z" />
<glyph unicode="&#xe26;" horiz-adv-x="1009" d="M43 662q39 64 86.5 114.5t102 86t116.5 54.5t129 19q66 0 125.5 -14t110 -39.5t91 -62t69.5 -82.5t44 -99t15 -113v-876h-197v876q0 49 -18.5 90.5t-52.5 71.5t-81 47t-106 17q-51 0 -99 -21t-87 -57l49 -52v-622h-284v184h86v373z" />
<glyph unicode="&#xe27;" horiz-adv-x="864" d="M39 156l123 135q56 -62 115 -89.5t112 -27.5q47 0 88 21t71 58t47 90t17 118t-17.5 118t-48 90t-71.5 57t-88 20q-54 0 -111 -28t-112 -90l-123 136q80 88 166.5 129t173.5 41q58 2 111.5 -13t100.5 -45t86 -72t67 -95t43.5 -115.5t15.5 -132.5q0 -69 -15.5 -131 t-42.5 -115t-65 -95.5t-84 -72t-98.5 -45.5t-108.5 -16q-44 -1 -88.5 8t-89 29.5t-88.5 53.5t-86 79z" />
<glyph unicode="&#xe28;" horiz-adv-x="962" d="M78 0v557q0 52 14.5 99.5t41 89.5t63.5 76t82 58.5t96 38t107 13.5q88 0 161 -31l113 121l145 -127l-100 -109q42 -48 62.5 -105t20.5 -124v-557h-198v557q0 39 -16 74t-44 61t-65 41t-79 15q-44 0 -82 -15t-65 -41t-43 -61t-16 -74h203v-182h-203v-375h-198z" />
<glyph unicode="&#xe29;" horiz-adv-x="983" d="M78 391v531h198v-533q0 -47 16 -86t44 -67t68 -44t88 -16t87.5 17t68 46t43.5 68t15 84v51h-122q-36 0 -66.5 13t-53 34.5t-34.5 50.5t-12 62v108h184v-86h104v298h199v-298h76v-182h-76v-51q0 -58 -14.5 -109.5t-41.5 -96.5t-65 -81.5t-83.5 -62t-98.5 -39.5 q-52 -14 -110 -14t-111 14t-99 39.5t-83.5 62t-64 81.5t-41.5 97t-15 109z" />
<glyph unicode="&#xe2a;" horiz-adv-x="917" d="M62 576q6 66 24 118t47 91.5t65 67t77.5 45.5t85.5 26q43 8 87 8q48 0 95 -9t92 -32l121 131l145 -127l-117 -127q56 -76 56 -188v-580h-191v258q0 40 -15.5 72t-42 54t-62.5 33q-37 11 -77 11q-38 0 -72 -11t-59.5 -32t-41 -51.5t-15.5 -69.5q0 -18 4.5 -35t16 -35 t31.5 -39t52 -47l-134 -134q-43 34 -73.5 69t-49 70.5t-27 73t-8.5 77.5q0 53 14 99.5t39.5 85.5t60.5 70t76.5 52t89.5 32q46 11 96 11q26 0 53.5 -3t54 -10t50.5 -18t42 -26v35q0 39 -16 68.5t-43 48.5t-64 29t-81 10q-46 0 -80 -11t-58.5 -33t-39 -54t-20.5 -74h-188z " />
<glyph unicode="&#xe2b;" horiz-adv-x="950" d="M78 0v922h190v-322l492 346l114 -143l-149 -105q34 -20 61.5 -46t46.5 -58t29 -69t10 -77v-448h-190v454q0 22 -9 42t-24 35t-35 23.5t-44 8.5q-23 0 -54.5 -13.5t-65 -34.5t-66 -44.5t-58.5 -44t-42 -34.5t-16 -15v-377h-190z" />
<glyph unicode="&#xe2c;" horiz-adv-x="1116" d="M78 260v662h198v-662q0 -18 7 -33t19 -26.5t29 -18t37 -6.5t36.5 6.5t28.5 18t19 26.5t7 33v352h199v-352q0 -18 6.5 -33t18.5 -26.5t29 -18.5q18 -6 38 -6t36 6.5t28.5 18t20 26.5t7.5 33v394q0 24 -5 39t-13 23t-20 11.5t-26 3.5h-120v170h130q16 0 27 -0.5t18 1.5 t10 7t3 17v74h194l-2 -76q0 -38 -10 -71t-32 -61q42 -62 42 -140v-392q0 -58 -23 -107t-62 -85.5t-92 -57t-111 -20.5q-110 0 -191 68q-81 -68 -191 -68q-60 0 -112.5 20.5t-92 57t-62.5 85.5t-23 107z" />
<glyph unicode="&#xe2d;" horiz-adv-x="1028" d="M62 516h489v-180h-277q14 -37 38 -67.5t55 -53t68.5 -35t80.5 -12.5q56 0 104 22t83 61.5t55 93.5t20 118q0 65 -19 120t-54 94t-83 61t-106 22q-39 0 -76 -11t-70.5 -35t-62.5 -61t-53 -90l-178 72q33 74 78.5 131.5t101.5 96.5t121.5 60t138.5 21q71 0 132.5 -18 t111.5 -50.5t89 -77.5t65.5 -98.5t40 -113.5t13.5 -123q0 -64 -14 -124t-41.5 -113.5t-67 -97.5t-90 -76t-111 -50t-128.5 -18q-72 0 -136 20t-117 55.5t-94 85t-68 108.5t-37 126t-2 137z" />
<glyph unicode="&#xe2e;" horiz-adv-x="1028" d="M62 516h489v-180h-277q14 -37 38 -67.5t55 -53t68.5 -35t80.5 -12.5q56 0 104 22t83 61.5t55 93.5t20 118q0 65 -19 119t-54 93t-83 61t-106 22q-39 0 -76 -11t-70.5 -34t-62.5 -60t-53 -90l-178 72q34 74 79.5 131.5t101 97.5t121 60t138.5 20q59 0 110.5 -12t96.5 -35 l127 137l148 -124l-128 -138q50 -66 74 -143.5t24 -165.5q0 -64 -14 -124t-41.5 -113.5t-67 -97.5t-90 -76t-111 -50t-128.5 -18q-72 0 -136 20t-117 55.5t-94 85t-68 108.5t-37 126t-2 137z" />
<glyph unicode="&#xe2f;" horiz-adv-x="872" d="M56 924h196q0 -59 14 -101.5t37.5 -70.5t55 -41t65.5 -13t65.5 13t55 41t37.5 70t14 102h196v-924h-196v574q-34 -30 -77 -45t-95 -15t-99 12.5t-88 37t-74 59.5t-57 80.5t-37 101t-13 119.5z" />
<glyph unicode="&#xe30;" horiz-adv-x="502" d="M64 250v98h190v-86h178v-180h-194q-37 0 -69 13t-55.5 36t-36.5 54t-13 65zM64 717v100h190v-88h178v-180h-194q-37 0 -69 13.5t-55.5 36t-36.5 53t-13 65.5z" />
<glyph unicode="&#xe31;" d="M-658 1218v115h172v-115h486v-174h-484q-37 0 -68.5 14.5t-54.5 38.5t-37 55.5t-14 65.5z" />
<glyph unicode="&#xe32;" horiz-adv-x="760" d="M-4 796q43 42 82 69t77.5 42.5t76.5 20.5q40 6 82 6q94 0 163 -28t115 -75.5t68 -110t22 -130.5v-590h-198v576q0 178 -172 178q-22 0 -42.5 -4t-42 -14t-45.5 -28q-24 -16 -53 -44z" />
<glyph unicode="&#xe33;" horiz-adv-x="760" d="M-354 1222q0 38 14 71t39 58t58 39.5t71 14.5t71 -14.5t58 -39.5t39 -58t14 -71t-14 -71t-39 -57.5t-58 -39t-71 -14.5t-71 14.5t-58 39t-39 58.5q-14 32 -14 70zM-228 1220q0 -12 4.5 -21t12 -16t17.5 -11t22 -4q23 0 38 14.5t15 37.5q0 12 -4 22t-11 18t-16.5 12 t-21.5 4t-22 -4t-17.5 -12t-12 -18t-4.5 -22zM-4 796q43 42 82 69t77.5 42.5t76.5 20.5q40 6 82 6q94 0 163 -28t115 -75.5t68 -110t22 -130.5v-590h-198v576q0 178 -172 178q-22 0 -42.5 -4t-42 -14t-45.5 -28q-24 -16 -53 -44z" />
<glyph unicode="&#xe34;" d="M-872 1044v174h794v-174h-794z" />
<glyph unicode="&#xe35;" d="M-872 1044v174h620v124h174v-298h-794z" />
<glyph unicode="&#xe36;" d="M-872 1044v174h514q6 27 19 49.5t32 39t43 26t51 9.5q30 0 57.5 -12t48 -32t32 -47t11.5 -57q0 -31 -11.5 -58t-32 -47.5t-47 -32.5t-56.5 -12h-661zM-262 1192q0 -10 4 -19t11 -15.5t15.5 -10.5t18.5 -4t18.5 4t15.5 10.5t11 15.5t4 19t-4 19t-11 15.5t-15.5 10.5 t-18.5 4t-18.5 -4t-15.5 -10.5t-11 -15.5t-4 -19z" />
<glyph unicode="&#xe37;" d="M-872 1044v174h382v124h164v-124h82v124h166v-298h-794z" />
<glyph unicode="&#xe38;" d="M-346 -90h168q20 0 38.5 -8t32 -21.5t21.5 -32t8 -38.5v-252h-186v164h-82v188z" />
<glyph unicode="&#xe39;" d="M-612 -92h264v-174q0 -19 13 -29t30 -10t30 10t13 29v174h184v-170q0 -46 -17 -84t-46.5 -65.5t-69.5 -42.5t-86 -15q-42 0 -83.5 11.5t-75 34.5t-54 59t-20.5 86h-82v186z" />
<glyph unicode="&#xe3a;" d="M-293 -166q0 24 9.5 46t25.5 38t37 25.5t45 9.5t46 -9.5t38 -25.5t25 -38t9 -46t-9 -46t-25 -38t-37 -25t-45 -9t-46 9t-38 25t-25.5 38t-9.5 46z" />
<glyph unicode="&#xe3e;" />
<glyph unicode="&#xe3f;" horiz-adv-x="854" d="M76 -2v1084h252v157h158v-166q54 -12 98 -35.5t75.5 -61t48.5 -89t17 -119.5q1 -106 -61 -180q73 -42 111 -109t38 -153q0 -78 -26.5 -136t-71.5 -98t-105 -63t-124 -29v-166h-158v164h-252zM248 170h80v301h-80v-301zM248 641h80v273h-80v-273zM486 174q36 6 64.5 16 t49 28t31 44t10.5 62q0 39 -12 65t-32.5 42.5t-49.5 25t-61 12.5v-295zM486 658q16 7 28 16t21 22.5t13.5 33t4.5 46.5q0 24 -4.5 43t-13.5 33t-21 24t-28 17v-235z" />
<glyph unicode="&#xe40;" horiz-adv-x="415" d="M108 0v922h199v-922h-199z" />
<glyph unicode="&#xe41;" horiz-adv-x="770" d="M108 0v922h199v-922h-199zM463 0v922h199v-922h-199z" />
<glyph unicode="&#xe42;" horiz-adv-x="377" d="M-64 1168q0 36 11 62t28 44t39 29t45 17t46 8.5t41 2.5h284v-182h-272q26 -14 49 -32.5t41 -41.5t28 -52t10 -65v-958h-200v960q0 15 -11 26.5t-28 23t-36 24.5t-36 31t-28 42.5t-11 60.5z" />
<glyph unicode="&#xe43;" horiz-adv-x="377" d="M-104 1040q0 74 20.5 131t56 95t83.5 58t102 20q56 0 103.5 -20t82 -53t54.5 -78t20 -97q0 -39 -10.5 -70.5t-28 -58.5t-41.5 -51t-52 -50v-866h-198v924q8 8 22 21t29.5 28t31 31t28.5 32.5t21 31.5q8 16 8 28q0 66 -68 65q-14 0 -27.5 -6t-23 -19.5t-15.5 -37.5t-6 -58 h-192z" />
<glyph unicode="&#xe44;" horiz-adv-x="377" d="M-58 1149v182h286q18 0 40.5 -3t45 -10.5t44.5 -19.5t39 -30t27 -43t10 -57q0 -30 -11 -53.5t-27 -42t-35.5 -33t-36 -27.5t-27.5 -25.5t-11 -26.5v-960h-198v958q0 36 10 65t28 52t41 41t48 33h-273z" />
<glyph unicode="&#xe45;" horiz-adv-x="760" d="M-4 796q43 42 82 69t77.5 42.5t76.5 20.5q40 6 82 6q94 0 163 -28t115 -75.5t68 -110t22 -130.5v-940h-198v926q0 178 -172 178q-22 0 -42.5 -4t-42 -14t-45.5 -28q-24 -16 -53 -44z" />
<glyph unicode="&#xe46;" horiz-adv-x="973" d="M72 555q0 62 20 119t59.5 105.5t97 88t130.5 66.5l105 -100l104 100q74 -27 131 -66t96 -87.5t59.5 -105t20.5 -118.5v-907h-197v907q0 91 -74 149l-140 -132l-142 132q-36 -30 -55 -68t-19 -83q0 -18 4 -35t13 -35.5t25 -40.5t42 -48l-139 -134q-39 39 -66 76t-44 72.5 t-24 71.5t-7 73z" />
<glyph unicode="&#xe47;" d="M-836 1274q0 54 16 101t45 81.5t71 54t94 19.5h532v-168h-532q-13 0 -22.5 -8t-16.5 -21t-10 -28t-3 -31t4 -30t11 -25t16 -17t19 -6q18 0 31 21t13 65h166q0 -42 14 -65t34 -23q46 0 45 88h167q0 -67 -17.5 -114.5t-47 -78.5t-67.5 -45t-80 -14q-38 0 -68 12t-60 35 q-29 -23 -60.5 -35t-67.5 -12q-49 0 -90.5 17.5t-71.5 49t-47 76.5t-17 101z" />
<glyph unicode="&#xe48;" d="M-252 1440v299h174v-299h-174z" />
<glyph unicode="&#xe49;" d="M-620 1706q26 26 60 40q32 13 68 13q33 0 64.5 -10.5t55.5 -31t37 -49t9 -64.5l-2 -23l19 2h309v-143h-551q8 14 18 31t19.5 33.5t17.5 33t14 31.5q4 6 6 15.5t1 18.5t-7 15t-18 6q-20 0 -26 -12z" />
<glyph unicode="&#xe4a;" d="M-608 1577q0 37 13.5 68t37 53t55.5 34.5t68 12.5q53 0 98 -39q24 20 50 30q24 9 48 9q33 0 63 -11.5t53.5 -33.5t37.5 -53t16 -70l17 2l135 -2v-137h-373q21 30 38 59t32 61q2 7 2.5 16.5t-2.5 17.5t-10 14t-19 6t-19 -3t-11 -9.5t-6 -17t-2 -26.5h-99q-1 8 -3 18t-6 18 t-10 13t-14 5q-17 0 -26.5 -8t-9.5 -25t13 -31t29 -26l-94 -90q-48 26 -75 63t-27 82z" />
<glyph unicode="&#xe4b;" d="M-346 1528v158h92v90h176v-88h92v-158h-92v-90h-176v88h-92z" />
<glyph unicode="&#xe4c;" d="M-389 1493q0 38 12.5 67.5t35 50.5t54 32.5t68.5 11.5h201v-164h-189q-7 0 -12 -2.5t-7 -5.5t-0.5 -8t7.5 -11l43 -38l-115 -116q-28 24 -46.5 48t-30 46t-16.5 44t-5 45z" />
<glyph unicode="&#xe4d;" d="M-354 1222q0 38 14 71t39 58t58 39.5t71 14.5t71 -14.5t58 -39.5t39 -58t14 -71t-14 -71t-39 -57.5t-58 -39t-71 -14.5t-71 14.5t-58 39t-39 58.5q-14 32 -14 70zM-228 1220q0 -12 4.5 -21t12 -16t17.5 -11t22 -4q23 0 38 14.5t15 37.5q0 12 -4 22t-11 18t-16.5 12 t-21.5 4t-22 -4t-17.5 -12t-12 -18t-4.5 -22z" />
<glyph unicode="&#xe4e;" d="M-358 1130q0 32 10 60t30 51q-20 24 -30 52q-10 29 -10 61q0 36 13 67t36 54t55 36t68 13q18 0 35 -3.5t35 -12t36 -22t39 -34.5l-88 -84q-12 12 -20.5 19t-15 10.5t-11.5 4.5q-4 1 -10 1q-23 0 -37.5 -14.5t-14.5 -34.5q0 -9 4.5 -18.5t15 -16.5t26.5 -12t42 -5v-120 q-26 0 -42 -4.5t-26.5 -11.5t-15 -16.5t-4.5 -19.5q0 -9 4.5 -17.5t15 -15.5t26.5 -11t42 -4v-124q-49 0 -87.5 13.5t-65.5 37t-41 54.5t-14 67z" />
<glyph unicode="&#xe4f;" horiz-adv-x="1151" d="M74 486q0 68 18 131t51 119t78.5 102t101 78.5t119.5 50.5t132 18t131 -18t119 -50.5t102 -78.5t78.5 -102t50.5 -119t18 -131t-18 -132t-50.5 -119.5t-78.5 -101t-102 -78.5t-119 -51t-131 -18t-132 18t-119.5 51t-101 78.5t-78.5 101t-51 119.5t-18 132zM213 486 q0 -49 13 -95t36.5 -86.5t56.5 -73.5t73.5 -56.5t86 -36.5t95.5 -13q49 0 94.5 13t85.5 36.5t73 56.5t56 73.5t36 86t13 95.5l2 -9q0 50 -13 97t-37 88t-57 74.5t-73 58t-86 38t-94 13.5q-49 0 -95 -13t-86.5 -37t-73.5 -57t-56.5 -73t-36.5 -86t-13 -94zM322 486 q0 52 19.5 98t54 80t80.5 54t98 20t98 -20t80 -54t54 -80t20 -98t-20 -98t-54 -80.5t-80 -54t-98 -19.5t-98 19.5t-80.5 54t-53.5 80.5q-20 46 -20 98zM456 486q0 -24 9.5 -45.5t25.5 -37.5t37.5 -25.5t45.5 -9.5t45 9.5t37 25.5t25 37.5t9 45.5t-9 45t-25 37t-37 25t-45 9 t-45.5 -9t-37.5 -25t-25.5 -37t-9.5 -45z" />
<glyph unicode="&#xe50;" horiz-adv-x="946" d="M35 414q0 60 15.5 114.5t44.5 102t69 87.5t89 68t105 43t117 15q60 0 116 -15t105 -43t89.5 -68t69.5 -87.5t45 -102t16 -114.5t-16 -115t-45 -103t-69.5 -87t-89.5 -67t-105 -43t-116 -15t-116.5 15t-105.5 43t-89 67t-69 87t-44.5 103t-15.5 115zM215 414 q0 -35 9.5 -67.5t26.5 -60.5t40.5 -51.5t52.5 -40t62 -25.5t69 -9q53 0 100 20t83 54.5t56.5 81t20.5 98.5t-20.5 98t-56.5 81t-83 55t-100 20q-54 0 -101.5 -20t-82.5 -55t-55.5 -81t-20.5 -98z" />
<glyph unicode="&#xe51;" horiz-adv-x="946" d="M48 492.5q-2 31.5 4 62.5q8 31 20 55q26 52 66 95t91 74t111 48t125 17q60 0 115.5 -15t104.5 -43.5t89 -68t69 -87.5t44.5 -103t15.5 -115t-15.5 -115t-44.5 -103t-69 -87t-89 -67t-104.5 -43t-115.5 -15q-46 0 -90 9t-87.5 29t-87.5 52t-90 78l128 124q34 -33 63 -55.5 t57 -35.5t54 -19t53 -6q35 0 68 9t62 25.5t53 40t41 51.5t27 60q9 34 9 68q0 35 -9.5 67.5t-26.5 60.5t-41 52t-53 40.5t-62 26t-68 9.5q-40 0 -76.5 -11t-67 -29t-54 -44t-37.5 -56q-6 -14 -5 -20t9 -6h157v-176h-163q-48 0 -81.5 14t-55 37.5t-31.5 53.5t-12 61.5z" />
<glyph unicode="&#xe52;" horiz-adv-x="1065" d="M76 446v562h178v-560q0 -62 19 -114t56 -89.5t92 -59t126 -21.5q68 0 122 19.5t91.5 56.5t58.5 90.5t21 121.5v34t-1 46t-4.5 49.5t-10 46t-18 33.5t-28.5 13q-23 0 -37 -14q-14 -16 -14 -36v-94h-170v94q0 9 -3.5 18.5t-11.5 16.5t-19 11t-25 4q-26 0 -42 -17t-16 -47 q0 -6 1.5 -15t9 -21.5t24.5 -28.5t47 -35l-118 -117q-40 28 -67 55.5t-42.5 54.5t-22 54t-6.5 53q0 42 15 85t44.5 77t73 55t99.5 21q40 0 75 -12q35 -14 66 -40q32 26 68.5 39t78.5 13q54 0 92 -19.5t64 -52t41 -74t23 -85.5t10 -87t2 -78q0 -106 -34.5 -191t-97 -145.5 t-148.5 -93t-191 -32.5q-108 0 -195.5 35.5t-148.5 97.5t-94 145q-33 82 -33 178z" />
<glyph unicode="&#xe53;" horiz-adv-x="1083" d="M41 410q0 68 18.5 135t59.5 127.5t106 110t158 79.5l170 -168l166 164q78 -28 138.5 -72t102 -99t63 -120t21.5 -137q0 -76 -21 -145t-64.5 -128.5t-108 -107.5t-152.5 -82l-84 158q68 26 116 58t79 70.5t45 83t14 93.5q0 34 -8 65.5t-23 59.5t-37 51.5t-48 42.5 l-199 -199l-207 208q-33 -21 -57.5 -49t-40.5 -60.5t-23.5 -68.5t-7.5 -72q0 -52 14.5 -98t40.5 -80t63 -53t83 -19h11.5t15 2t19.5 6q12 5 26 14l69 -154q-24 -14 -43.5 -22.5t-37 -13t-33 -5.5t-29.5 1q-62 2 -114.5 19.5t-94 47.5t-72.5 70.5t-52 86.5t-31.5 97 t-10.5 103z" />
<glyph unicode="&#xe54;" horiz-adv-x="1003" d="M41 416q0 60 15.5 114.5t44.5 102t69 87.5t89 68t105 43t118 15h314l128 166l147 -100l-141 -183q-19 -24 -50.5 -41.5t-72.5 -17.5h-325q-54 0 -102 -20t-84 -55t-56.5 -81t-20.5 -98t20.5 -99t56.5 -82t84 -55t102 -20q32 0 62.5 7t61.5 21l-84 84q-24 24 -43 52 t-26.5 59t1 63.5t42.5 65.5l78 80l128 -127l-61 -59l325 -324l-124 -123l-104 101q-56 -36 -122 -56q-64 -20 -134 -20q-61 0 -117.5 15t-105.5 43t-89 67.5t-69 87.5t-44.5 103.5t-15.5 115.5z" />
<glyph unicode="&#xe55;" horiz-adv-x="1003" d="M41 416q0 72 23 137t63.5 119t96.5 93t122 61q-2 4 -2 10v14q0 40 15.5 76t42 63t62.5 42t76 15t76.5 -15t63 -42t42.5 -63t16 -76v-4h58l128 166l147 -100l-141 -183q-19 -24 -50.5 -41.5t-72.5 -17.5h-325q-54 0 -102 -20t-84 -55t-56.5 -81t-20.5 -98t20.5 -99 t56.5 -82t84 -55t102 -20q32 0 62.5 7t61.5 21l-84 84q-24 24 -43 52t-26.5 59t1 63.5t42.5 65.5l78 80l128 -127l-61 -59l325 -324l-124 -123l-104 101q-56 -36 -122 -56q-64 -20 -134 -20q-61 0 -117.5 15t-105.5 43t-89 67.5t-69 87.5t-44.5 103.5t-15.5 115.5zM473 852 q0 -14 5.5 -27t14.5 -22t21 -14t26 -5t27 5t22 14t14 22t5 27t-5 27t-14 22t-21 14q-14 5 -28 5t-26 -5t-21 -14t-14.5 -22t-5.5 -27z" />
<glyph unicode="&#xe56;" horiz-adv-x="932" d="M43 824l127 122l236 -236l139 140q82 -22 146.5 -64t109.5 -98t69.5 -123t24.5 -141q0 -60 -15.5 -115t-44.5 -103.5t-69 -89t-89 -69t-105 -44t-116 -15.5q-58 0 -110 14t-97 38t-81 57t-64 71q-30 40 -40 74t-7 63.5t18.5 56t38 53t50.5 53t57 54.5l123 -122 q-6 -6 -17.5 -16t-24.5 -21t-25.5 -23t-21.5 -24.5t-12 -23.5q-3 -12 3 -20q16 -24 38.5 -43.5t50 -34t58.5 -22.5t63 -8q53 0 100.5 21t83.5 56t56.5 82.5t20.5 100.5q0 34 -9 66.5t-25.5 61t-40.5 52.5t-54 41l-182 -182z" />
<glyph unicode="&#xe57;" horiz-adv-x="1095" d="M39 410q0 45 8 90.5t25.5 89t44.5 84t65 76.5t88 65t113 49l170 -170l166 166q24 -8 44.5 -17t38.5 -19.5t34 -23t32 -26.5v232h178v-576q0 -76 -21.5 -145t-65 -128.5t-108.5 -107.5t-153 -82l-84 158q68 26 116 58t79 70.5t45 83t14 93.5q0 66 -30 123t-86 96 l-199 -199l-207 208q-33 -21 -57.5 -49t-41 -60.5t-24.5 -68.5t-8 -72q0 -52 15 -97t41.5 -78t63.5 -53t83 -22h11.5t15 2.5t19.5 7.5q12 4 26 14l69 -156q-24 -14 -43.5 -22t-37 -12t-33 -5t-29.5 -1q-63 2 -115.5 19.5t-94.5 48t-73 70.5t-52 87t-31 97q-11 52 -11 102z " />
<glyph unicode="&#xe58;" horiz-adv-x="1102" d="M39 408q0 62 16.5 118t45.5 105t70.5 90t92 69t108.5 44t120 16h368h10.5t6 1.5t4.5 4.5q2 2 6 8l117 152l147 -98l-141 -185q-19 -24 -50.5 -41.5t-72.5 -17.5h-395q-58 0 -108 -21t-87 -57t-59 -84q-21 -48 -21 -104q0 -36 9 -69.5t25.5 -63t40.5 -53.5t54 -42l207 203 l217 -215q24 6 44 19t34 31t22 40t8 47q0 28 -11 53.5t-36 45t-64 31t-93 11.5v176q88 0 159 -24t121 -67t76.5 -101t26.5 -125t-25.5 -125t-71.5 -101t-110 -67t-142 -24l-155 152l-170 -166q-80 27 -143.5 70t-108.5 99t-69 123q-23 68 -23 142z" />
<glyph unicode="&#xe59;" horiz-adv-x="1130" d="M41 416q0 62 14.5 117.5t41 103.5t64.5 87t84.5 66.5t101 42.5t114.5 15q54 0 103.5 -22t84.5 -64q33 33 62 49.5t58 23.5t61 7h73q8 0 18.5 11t22.5 28t24 37t23 38t19 32q7 16 10 20l146 -84q-10 -14 -17 -26t-13 -22t-12 -18t-12 -18q-17 -26 -36.5 -55t-43.5 -54 t-52 -42t-62 -19q-22 -2 -39 -1t-30.5 1t-24.5 -1t-22.5 -7t-24.5 -17t-29 -31l360 -556l-150 -91l-442 685q-4 8 -19.5 14t-35.5 6q-50 0 -93.5 -18.5t-76 -52t-51.5 -81.5q-19 -46 -19 -104q0 -52 20.5 -98.5t55.5 -81t83 -54.5t102 -20q13 0 26.5 1t31.5 6t41 13t54 23 l80 -158q-42 -18 -75 -29.5t-60.5 -18.5t-50.5 -10t-47 -3q-60 0 -117 15t-105.5 43t-89 67t-69.5 87t-44.5 103t-15.5 115z" />
<glyph unicode="&#xe5a;" horiz-adv-x="1224" d="M56 924h196q0 -59 14 -101.5t37.5 -70.5t55 -41t65.5 -13t65.5 13t55 41t37.5 70t14 102h196v-924h-196v574q-34 -30 -77 -45t-95 -15t-99 12.5t-88 37t-74 59.5t-57 80.5t-37 101t-13 119.5zM948 0v924h197v-924h-197z" />
<glyph unicode="&#xe5b;" horiz-adv-x="2060" d="M70 471q0 63 14 116t38 96t58 75t72.5 54t81 33t84.5 11q40 0 78 -9t71 -27t60 -45.5t45 -65t24 -85.5t-2 -106l-172 -14q8 48 2.5 82t-21 55t-39.5 31t-50 10q-28 0 -57 -11.5t-53 -36.5t-39 -65.5t-15 -97.5q0 -64 21.5 -110.5t59 -76t87.5 -43t108 -13.5q50 0 95.5 19 t82.5 52t63.5 77t39.5 93t10 101t-25 100l124 84q18 -15 38 -37t42 -48.5t44 -55t42.5 -57t38.5 -55.5t32 -49q8 18 18 41t19.5 45.5t16.5 42t11 31.5l118 72q10 -10 28 -32.5t37 -49t38 -54.5t33 -50l19 36l12 25h477v-176h-384q-16 -23 -30 -43.5t-26 -40.5 q-12 -18 -23 -35.5t-22 -34t-21 -30t-18 -21.5q-8 24 -25 58t-36 69t-37 67.5t-31 55.5q-10 -20 -24.5 -46t-31.5 -54.5t-36 -58t-37 -56.5t-35 -49.5t-31 -36.5q-12 27 -31 64t-40 77t-43 77t-41 63q-12 -46 -35 -91t-54.5 -84t-71 -71.5t-85 -56t-97.5 -36.5t-106 -13 q-108 0 -193 30t-144 84.5t-90 131t-31 169.5z" />
<glyph unicode="&#x2000;" horiz-adv-x="888" />
<glyph unicode="&#x2001;" horiz-adv-x="1776" />
<glyph unicode="&#x2002;" horiz-adv-x="888" />
<glyph unicode="&#x2003;" horiz-adv-x="1776" />
<glyph unicode="&#x2004;" horiz-adv-x="592" />
<glyph unicode="&#x2005;" horiz-adv-x="444" />
<glyph unicode="&#x2006;" horiz-adv-x="296" />
<glyph unicode="&#x2007;" horiz-adv-x="296" />
<glyph unicode="&#x2008;" horiz-adv-x="222" />
<glyph unicode="&#x2009;" horiz-adv-x="355" />
<glyph unicode="&#x200a;" horiz-adv-x="98" />
<glyph unicode="&#x200b;" />
<glyph unicode="&#x2010;" horiz-adv-x="588" d="M53 318v164h481v-164h-481z" />
<glyph unicode="&#x2011;" horiz-adv-x="588" d="M53 318v164h481v-164h-481z" />
<glyph unicode="&#x2012;" horiz-adv-x="588" d="M53 318v164h481v-164h-481z" />
<glyph unicode="&#x2013;" horiz-adv-x="778" d="M2 268v180h774v-180h-774z" />
<glyph unicode="&#x2014;" horiz-adv-x="1556" d="M2 268v180h1552v-180h-1552z" />
<glyph unicode="&#x2018;" horiz-adv-x="385" d="M53 981q0 30 11.5 62.5t34.5 66t59 67t86 66.5l78 -84q-24 -14 -41.5 -26.5t-31 -23.5t-23.5 -23t-19 -27q43 -11 67 -39q25 -28 25 -66q0 -22 -8.5 -43t-24.5 -37t-37 -25t-47 -9q-33 0 -57.5 13t-40.5 33.5t-23.5 45.5t-7.5 49z" />
<glyph unicode="&#x2019;" horiz-adv-x="385" d="M35 912q22 14 38.5 26t30.5 23.5t25 23.5q11 13 21 27q-44 11 -69 38.5t-25 65.5q0 22 9 43t24.5 37t37 25.5t45.5 9.5q34 0 58.5 -13.5t41 -33.5t24 -45t7.5 -49q0 -62 -46.5 -129t-146.5 -133z" />
<glyph unicode="&#x201c;" horiz-adv-x="631" d="M53 981q0 30 11.5 62.5t34.5 66t59 67t86 66.5l78 -84q-24 -14 -41.5 -26.5t-31 -23.5t-23.5 -23t-19 -27q43 -11 67 -39q25 -28 25 -66q0 -22 -8.5 -43t-24.5 -37t-37 -25t-47 -9q-33 0 -57.5 13t-40.5 33.5t-23.5 45.5t-7.5 49zM330 981q0 30 11 62.5t34.5 66t59.5 67 t85 66.5l78 -84q-24 -14 -41 -26.5t-30.5 -23.5t-24 -23t-18.5 -27q43 -11 68 -39q24 -28 24 -66q0 -22 -9 -43t-24.5 -37t-37 -25t-46.5 -9q-33 0 -57.5 13t-40.5 33.5t-23.5 45.5t-7.5 49z" />
<glyph unicode="&#x201d;" horiz-adv-x="645" d="M30 912q22 14 39.5 26t31 23.5t24.5 23.5q11 13 21 27q-44 11 -68.5 38.5t-24.5 65.5q0 22 8.5 43t24.5 37t37 25.5t47 9.5q33 0 57.5 -13.5t40.5 -33.5t23.5 -45t7.5 -49q0 -62 -46.5 -129t-144.5 -133zM307 912q22 14 39.5 26t30.5 23.5t24 23.5q11 13 21 27 q-44 11 -68 38.5t-24 65.5q0 22 8.5 43t24 37t37.5 26q20 9 46 9q33 0 57.5 -13.5t40.5 -33.5t24 -45t8 -49q0 -62 -46.5 -129t-144.5 -133z" />
<glyph unicode="&#x2022;" horiz-adv-x="737" d="M24 410q0 48 12.5 91.5t35 82t53.5 69.5t69.5 53.5t82.5 35.5q43 12 91 12t92 -12.5t82 -35t70 -53.5t54 -69.5t34 -82t12 -91.5t-12 -92t-34 -82t-54 -70t-70 -54t-82 -34t-92 -12t-91.5 12t-82 34t-69.5 54t-53.5 70t-35 82t-12.5 92z" />
<glyph unicode="&#x202f;" horiz-adv-x="355" />
<glyph unicode="&#x205f;" horiz-adv-x="444" />
<glyph unicode="&#x20ac;" horiz-adv-x="1138" d="M33 312v184h100q0 11 -1 21.5t-1 20.5q0 14 1.5 27t2.5 27h-102v184h153q35 70 88.5 129.5t120 102t144.5 66.5q77 24 163 24q43 0 87 -7t89.5 -22.5t94.5 -42.5q49 -28 102 -68l-107 -157q-46 34 -84 54.5t-71 31.5t-61 14.5t-54 3.5q-40 0 -78.5 -9t-73.5 -25.5 t-65.5 -40.5t-56.5 -54h276v-184h-362q-6 -28 -6 -60q0 -11 1 -18.5t3 -17.5h364v-184h-282q27 -31 58.5 -56.5t67.5 -43.5t75 -28t79 -10q27 0 55.5 4t60.5 15t70 32t84 55l109 -159q-54 -40 -102.5 -66.5t-93.5 -42.5t-89 -22t-92 -6q-84 0 -162.5 24t-146 68t-121.5 104 t-88 132h-149z" />
<glyph unicode="&#x2122;" horiz-adv-x="1220" d="M53 975v109h408v-109h-147v-529h-114v529h-147zM416 438l135 644h69l174 -428l177 428h69l134 -644h-115l-76 383l-155 -383h-62l-158 386l-78 -386h-114z" />
<glyph unicode="&#x25cc;" horiz-adv-x="1372" d="M334 588l92 45q-2 -12 -3 -24.5t-1 -24.5q0 -10 1 -21.5t3 -22.5zM432 336l35 96q14 -20 29.5 -36t33.5 -30zM446 838l92 -33q-20 -12 -35.5 -27.5t-29.5 -33.5zM639 846l47 92l45 -90q-10 2 -21 2h-22q-12 0 -24.5 -1t-24.5 -3zM643 320q11 -2 23 -3t22 -1q11 0 20.5 1 t18.5 3l-41 -86zM840 805l100 33l-35 -96q-14 18 -29.5 33.5t-35.5 29.5zM842 362q18 12 32.5 26.5t26.5 31.5l25 -84zM952 545q2 9 3 19t1 20q0 11 -1 22.5t-3 21.5l86 -44z" />
<glyph unicode="&#x25fc;" horiz-adv-x="750" d="M0 0v750h750v-750h-750z" />
<glyph unicode="&#xf700;" horiz-adv-x="874" d="M28 545q10 92 45 163.5t87.5 121.5t120 76t143.5 26q45 0 88.5 -9.5t85.5 -29.5l114 125l150 -125l-112 -125q31 -44 48 -94t17 -106q0 -28 -8.5 -68t-23 -86t-32 -94t-36.5 -94q-22 -54 -46.5 -111t-52.5 -117h-184l-200 544h208l86 -239l78 201q6 17 10 31.5t4 32.5 q0 36 -15 68t-41 56.5t-62 39t-76 14.5q-48 0 -82 -17.5t-58 -46t-37 -64.5t-19 -73h-200z" />
<glyph unicode="&#xf701;" d="M-983 1042v174h631v-174h-631z" />
<glyph unicode="&#xf702;" d="M-983 1042v174h455v117h176v-291h-631z" />
<glyph unicode="&#xf703;" d="M-983 1042v174h348q6 27 18.5 49.5t31.5 39t43 25.5q24 10 52 10q30 0 57.5 -12t47.5 -32t31.5 -47t11.5 -57q0 -31 -11.5 -58t-31.5 -47.5t-47 -32.5q-28 -12 -58 -12h-493zM-540 1190q0 -10 4 -19t10.5 -16t15 -11t18.5 -4t19 4t16 11t11 16t4 19t-4 19t-11 15.5 t-16 10.5t-19 4t-18.5 -4t-15 -10.5t-10.5 -15.5t-4 -19z" />
<glyph unicode="&#xf704;" d="M-983 1042v172h217v119h166v-119h82v119h166v-291h-631z" />
<glyph unicode="&#xf705;" d="M-584 1042v365h191v-365h-191z" />
<glyph unicode="&#xf706;" d="M-891 1319q25 26 59 39.5t70 13.5q33 0 64.5 -11t55.5 -31t37 -49t9 -65l-2 -20h18h242v-154h-490q8 14 19 33t22 38.5t20 37t15 31.5q4 7 6 16.5t0.5 18.5t-7 15.5t-17.5 6.5q-20 0 -26 -12z" />
<glyph unicode="&#xf707;" d="M-960 1188q0 39 14.5 71.5t39.5 55.5t58.5 36t71.5 13q23 0 48 -8t48 -27q24 18 49 26.5t49 8.5q36 0 68 -12t56 -34t39 -52.5t17 -67.5h64v-156h-303q8 13 19.5 29.5t22.5 34.5t21 36t15 32q3 9 2 17.5t-4.5 15.5t-10 11t-14.5 4q-6 0 -12 -2t-11 -8t-8 -16t-3 -24h-109 q-3 52 -33 52t-30 -32q0 -8 3.5 -15t10 -14t16.5 -15t22 -18l-104 -98q-26 14 -46.5 31t-35 37t-22.5 42t-8 46z" />
<glyph unicode="&#xf708;" d="M-766 1157v170h121v117h184v-115h123v-170h-123v-117h-184v115h-121z" />
<glyph unicode="&#xf709;" d="M-708 1172q0 38 11.5 67.5t34 50.5t53.5 32t71 11h200v-163h-190q-14 0 -18 -7t8 -18l40 -41l-104 -115q-56 49 -81 94t-25 89z" />
<glyph unicode="&#xf70a;" d="M-268 1042v367h190v-365z" />
<glyph unicode="&#xf70b;" d="M-631 1319q26 26 60.5 39.5t70.5 13.5q33 0 65.5 -11t57.5 -31t37.5 -49t5.5 -65l-4 -20h260v-154h-487q8 14 18.5 33t20.5 38.5t20 37t16 31.5q3 7 4.5 16.5t0 18.5t-7 15.5t-17.5 6.5q-18 0 -26 -12z" />
<glyph unicode="&#xf70c;" d="M-723 1188q0 39 14.5 71.5t39.5 55.5t58 36t71 13q24 0 49 -8t49 -27q20 18 46.5 26.5t51.5 8.5q34 0 65.5 -12t56 -34t39.5 -52.5t17 -67.5h166v-156h-404q8 13 19 30.5t22 35.5t21 35q8 17 14 31q4 9 3.5 17.5t-4 15.5t-10.5 11t-15 4q-14 0 -24.5 -12t-10.5 -38h-107 q-2 29 -12 40.5t-22 11.5q-28 0 -29 -32q0 -12 5 -21t12.5 -16t16 -13t15.5 -12l-100 -98q-54 30 -83.5 68t-29.5 88z" />
<glyph unicode="&#xf70d;" d="M-383 1157v170h121v117h184v-115h123v-170h-123v-117h-184v115h-121z" />
<glyph unicode="&#xf70e;" d="M-400 1186q0 38 12 68t34 50.5t54 32t70 11.5h202v-164h-191q-14 0 -18.5 -7t7.5 -18l42 -41l-115 -114q-28 24 -46.5 47t-29.5 46t-16 45t-5 44z" />
<glyph unicode="&#xf70f;" horiz-adv-x="1534" d="M18 660q39 64 88 115t105.5 86t119.5 54t132 19q100 0 185 -30.5t146.5 -85t96.5 -129.5t35 -165v-192q0 -33 13 -62.5t36 -51.5t55 -35t70 -13t69.5 12t55 34t36.5 52t13 64v592h200l-2 -592q0 -48 -13 -92.5t-37 -83t-58 -70t-75.5 -54t-89 -34.5t-99.5 -12t-100 12 t-90 34.5t-76 54t-58 70t-37.5 83t-13.5 92.5v194q0 49 -18.5 90.5t-53.5 70.5t-83 46t-107 17q-54 0 -103.5 -21t-87.5 -57l50 -50v-436h132v-186h-333v555z" />
<glyph unicode="&#xf710;" d="M-626 1218v115h172v-115h484v-174h-482q-37 0 -69 14.5t-55.5 38.5t-36.5 55.5t-13 65.5z" />
<glyph unicode="&#xf711;" d="M-715 1212q0 38 14.5 71t39.5 58t58 39t71 14t71 -14t57.5 -39t39 -58t14.5 -71t-14.5 -71t-39 -57.5t-58.5 -39.5q-32 -14 -70 -14t-71 14.5t-58 39t-39 58.5q-15 32 -15 70zM-586 1210q0 -24 15 -38.5t39 -14.5q23 0 38 14.5t15 38.5q0 12 -4 22t-11.5 17.5t-17.5 12.5 q-8 4 -20 4t-22 -4.5t-17 -12t-11 -17.5t-4 -22z" />
<glyph unicode="&#xf712;" d="M-1000 1276q0 48 15 91t42 74.5t65 50t84 18.5h485v-156h-485q-9 0 -17.5 -7.5t-14 -19t-9 -25t-3.5 -26.5q0 -37 13 -58.5t33 -21.5q42 0 42 86h158q0 -88 41 -88q25 0 34 21.5t9 66.5h164q0 -66 -16 -111t-43.5 -74t-65 -42t-80.5 -13q-69 0 -123 44q-56 -44 -122 -44 q-46 0 -84 18.5t-65 50t-42 74.5t-15 91z" />
<glyph unicode="&#xf713;" d="M-528 1440v299h176v-299h-176z" />
<glyph unicode="&#xf714;" d="M-666 1706q24 26 59 39.5t71 13.5q33 0 65.5 -11t57.5 -31.5t37 -48.5t6 -64l-5 -23l19 2l278 -2v-141h-520q8 14 18 31t19.5 33.5t18 33t16.5 31.5q3 6 4.5 15.5t-0.5 18.5t-8 15t-17 6q-19 0 -27 -12z" />
<glyph unicode="&#xf715;" d="M-694 1577q0 37 13.5 68t37 53t55.5 34.5t68 12.5q53 0 98 -39q24 20 50 30q24 9 48 9q33 0 63 -11.5t53.5 -33.5t37.5 -53t16 -70l17 2l135 -2v-137h-373q21 30 38 59t32 61q2 7 2.5 16.5t-2.5 17.5t-10 14t-19 6t-19 -3t-11 -9.5t-6 -17t-2 -26.5h-99q-1 8 -3 18t-6 18 t-10 13t-14 5q-17 0 -26.5 -8t-9.5 -25t13 -31t29 -26l-94 -90q-48 26 -75 63t-27 82z" />
<glyph unicode="&#xf716;" d="M-622 1528v158h92v90h176v-88h94v-158h-92v-90h-176v88h-94z" />
<glyph unicode="&#xf717;" d="M-641 1493q0 38 12.5 67.5t35 50t54 31t68.5 10.5h201v-161h-191q-14 0 -19 -8q-4 -9 9 -19l43 -40l-114 -114q-28 24 -47 48t-30.5 46t-16.5 44t-5 45z" />
<glyph unicode="&#xf718;" d="M-348 -410h170q20 0 38.5 -8t32 -21t21.5 -31.5t8 -39.5v-250h-186v164h-84v186z" />
<glyph unicode="&#xf719;" d="M-612 -410h264v-174q0 -19 13 -28.5t30 -9.5t30 10t13 28v174h184v-170q0 -46 -17 -84t-46.5 -65t-69.5 -42t-86 -15q-42 0 -83.5 11t-75 34.5t-54 59.5t-20.5 85h-82v186z" />
<glyph unicode="&#xf71a;" d="M-293 -518q0 24 9.5 46t25.5 38t37 25t45 9t46 -9t38 -25t25 -38t9 -46v2q0 -24 -9 -46t-25 -38t-37 -25.5t-45 -9.5t-46 9.5t-38 25.5t-25.5 37t-9.5 45z" />
<glyph unicode="&#xf71d;" horiz-adv-x="1116" d="M78 260v662h198v-662q0 -18 7 -33t19 -26.5t29 -18t37 -6.5t36.5 6.5t28.5 18t19 26.5t7 33v352h199v-352q0 -18 6.5 -33t18.5 -26.5t29 -18.5q18 -6 38 -6t36 6.5t28.5 18t20 26.5t7.5 33v394q0 24 -5 39t-13 23t-20 11.5t-26 3.5h-120v170h130q16 0 27 -0.5t18 1.5 t10 7t3 17v74h194l-2 -76q-1 -38 -11 -71q-9 -33 -31 -61q42 -62 42 -140v-392q0 -58 -23 -107t-62 -85.5t-92 -57t-111 -20.5q-110 0 -191 68q-81 -68 -191 -68q-60 0 -112.5 20.5t-92 57t-62.5 85.5t-23 107z" />
<glyph unicode="&#xf881;" horiz-adv-x="1526" d="M28 662q40 64 88 115t102 86t116 54t129 19q99 0 182 -30t143 -85q38 34 73.5 56.5t71 34.5t71.5 17t76 5q94 0 163 -28t115 -75.5t68 -110t22 -130.5v-940h-198v926q0 178 -173 178q-22 0 -42 -4t-41.5 -14t-45.5 -28q-24 -16 -53 -44v2q11 -34 17 -69t6 -71v-876h-199 l2 876q0 49 -18.5 90.5t-52.5 71.5t-81 47t-106 17q-26 0 -51 -6t-49 -16t-46 -24q-23 -14 -41 -32l50 -52v-438h130v-184h-329v557z" />
<glyph unicode="&#xf882;" horiz-adv-x="1538" d="M43 662q39 64 86.5 114.5t102 86t116.5 54.5t129 19q99 0 181 -30t143 -85q38 34 73.5 56.5t70.5 34.5t71 17t76 5q63 0 114.5 -13t92.5 -36t71 -55t50 -70t30 -81t10 -89v-940h-198v926q0 178 -172 178q-24 0 -46 -4t-44 -14t-44 -27t-46 -43q10 -34 16 -69t6 -71v-876 h-197v876q0 49 -18.5 90.5t-52.5 71.5t-81 47t-106 17q-51 0 -99 -21t-87 -57l49 -52v-622h-284v184h86v373z" />
<glyph d="M-584 1130q0 64 42 111q-42 47 -42 113q0 36 13.5 67t37 54t54.5 36t67 13q18 0 36 -3.5t35 -12t35.5 -22t39.5 -34.5l-88 -84q-12 12 -21 19t-15 10.5t-11 4.5t-11 1q-24 0 -37.5 -14.5t-13.5 -34.5q0 -9 4.5 -18.5t14.5 -16.5t27 -12t42 -5v-120q-26 0 -42.5 -4.5 t-26.5 -11.5t-14.5 -16.5t-4.5 -19.5q0 -9 4.5 -17.5t14.5 -15.5t27 -11t42 -4v-124q-49 0 -88 13.5t-65.5 37t-41 54.5t-14.5 67z" />
<glyph horiz-adv-x="760" d="M-715 1212q0 38 14.5 71t39.5 58t58 39t71 14t71 -14t57.5 -39t39 -58t14.5 -71t-14.5 -71t-39 -57.5t-58.5 -39.5q-32 -14 -70 -14t-71 14.5t-58 39t-39 58.5q-15 32 -15 70zM-586 1210q0 -24 15 -38.5t39 -14.5q23 0 38 14.5t15 38.5q0 12 -4 22t-11.5 17.5t-17.5 12.5 q-8 4 -20 4t-22 -4.5t-17 -12t-11 -17.5t-4 -22zM-4 796q43 42 82 69t77.5 42.5t76.5 20.5q40 6 82 6q94 0 163 -28t115 -75.5t68 -110t22 -130.5v-590h-198v576q0 178 -172 178q-22 0 -42.5 -4t-42 -14t-45.5 -28q-24 -16 -53 -44z" />
<glyph horiz-adv-x="760" d="M-715 1212q0 38 14.5 71t39.5 58t58 39t71 14t71 -14t57.5 -39t39 -58t14.5 -71t-14.5 -71t-39 -57.5t-58.5 -39.5q-32 -14 -70 -14t-71 14.5t-58 39t-39 58.5q-15 32 -15 70zM-586 1210q0 -24 15 -38.5t39 -14.5q23 0 38 14.5t15 38.5q0 12 -4 22t-11.5 17.5t-17.5 12.5 q-8 4 -20 4t-22 -4.5t-17 -12t-11 -17.5t-4 -22zM-4 796q43 42 82 69t77.5 42.5t76.5 20.5q40 6 82 6q94 0 163 -28t115 -75.5t68 -110t22 -130.5v-590h-198v576q0 178 -172 178q-22 0 -42.5 -4t-42 -14t-45.5 -28q-24 -16 -53 -44z" />
<glyph d="M-832 1044v174h754v-174h-754z" />
<glyph d="M-832 1044v174h580v124h174v-298h-754z" />
<glyph d="M-832 1044v174h474q6 27 19 49.5t32 39t43 26t51 9.5q30 0 57.5 -12t48 -32t32 -47t11.5 -57q0 -31 -11.5 -58t-32 -47.5t-47 -32.5t-56.5 -12h-621zM-262 1192q0 -10 4 -19t11 -15.5t15.5 -10.5t18.5 -4t18.5 4t15.5 10.5t11 15.5t4 19t-4 19t-11 15.5t-15.5 10.5 t-18.5 4t-18.5 -4t-15.5 -10.5t-11 -15.5t-4 -19z" />
<glyph d="M-832 1044v174h342v124h164v-124h82v124h166v-298h-754z" />
<glyph d="M-526 -90h168q21 0 39 -8t31.5 -21.5t21.5 -32t8 -38.5v-252h-186v164h-82v188z" />
<glyph d="M-674 -92h264v-174q0 -19 13 -29t31 -10q17 0 29.5 10t12.5 29v174h184v-170q0 -46 -17 -84t-46 -65.5t-69 -42.5t-86 -15q-42 0 -84 11.5t-75 34.5t-54 59t-21 86h-82v186z" />
<glyph d="M-608 1440v299h176v-299h-176z" />
<glyph d="M-702 1528v158h92v90h176v-88h94v-158h-92v-90h-176v88h-94z" />
<glyph d="M-521 1706q26 26 59.5 39.5t69.5 13.5q33 0 64.5 -10.5t55 -31t36.5 -49t10 -64.5l-2 -23l18 2h310v-143h-552q8 14 18 31t19.5 33.5t18 33t14.5 31.5q4 6 6 15.5t0.5 18.5t-7 15t-17.5 6q-20 0 -27 -12z" />
<glyph d="M-464 1577q0 37 14 68t37.5 53t55.5 34.5t68 12.5q53 0 98 -39q24 20 49.5 29.5t49.5 9.5q33 0 62.5 -11.5t52.5 -33.5t37 -53q16 -31 18 -70l16 2l135 -2v-137h-373q21 30 38.5 59t31.5 61q2 7 2.5 16.5t-2.5 17.5t-9.5 14t-19.5 6q-12 0 -19 -3t-11 -9.5t-6 -17.5 q-3 -10 -3 -26h-98q-1 8 -3 18t-5.5 18t-9.5 13t-15 5q-17 0 -27 -8t-10 -25t13 -31t31 -26l-95 -90q-48 26 -75.5 63t-27.5 82z" />
</font>
</defs>
</svg>
